<svg id="svg" version="1.1" xmlns="http://www.w3.org/2000/svg" xmlns:xlink="http://www.w3.org/1999/xlink" width="400" height="400" viewBox="0, 0, 400,400"><g id="svgg"><path id="path0" d="M158.822 73.500 C 158.596 74.325,158.271 75.797,158.099 76.770 C 157.823 78.334,157.554 78.684,155.793 79.770 L 153.800 81.000 97.366 81.113 L 40.933 81.226 40.042 82.810 C 38.803 85.016,38.886 104.608,40.148 107.504 L 40.890 109.208 139.145 109.061 C 240.388 108.909,240.389 108.909,241.903 107.402 C 242.399 106.908,243.853 106.210,245.134 105.850 C 247.665 105.140,248.940 104.052,249.371 102.236 C 249.646 101.079,251.533 98.907,252.936 98.133 C 253.431 97.861,253.916 96.681,254.416 94.532 C 255.575 89.557,256.688 86.951,258.187 85.708 C 259.524 84.599,260.730 79.265,260.248 76.599 C 260.168 76.160,259.979 74.945,259.827 73.900 L 259.551 72.000 209.392 72.000 L 159.232 72.000 158.822 73.500 " stroke="none" fill="#ecf1ec" fill-rule="evenodd"></path><path id="path1" d="M24.484 34.957 C 24.823 35.323,25.225 35.396,25.655 35.167 C 26.948 34.482,116.800 34.706,116.800 35.395 C 116.800 35.728,116.991 36.000,117.224 36.000 C 117.457 36.000,117.550 35.842,117.430 35.649 C 116.695 34.459,121.727 34.875,122.566 36.073 C 123.071 36.794,123.114 36.767,123.282 35.620 L 123.461 34.400 73.715 34.400 C 31.206 34.400,24.043 34.481,24.484 34.957 M20.200 35.069 C 17.622 35.636,16.400 36.831,16.400 38.786 C 16.400 40.242,15.927 40.800,14.657 40.840 C 13.469 40.878,13.455 40.896,14.400 41.167 C 15.923 41.605,16.800 41.234,16.800 40.153 C 16.800 39.629,16.983 39.200,17.208 39.200 C 17.569 39.200,17.478 40.282,16.979 41.900 C 16.894 42.175,16.999 42.400,17.213 42.400 C 17.426 42.400,17.600 41.977,17.600 41.459 C 17.600 39.460,21.662 35.554,22.981 36.285 C 23.246 36.432,23.240 36.343,22.965 36.044 C 22.653 35.704,22.231 35.684,21.465 35.975 C 20.783 36.234,20.400 36.240,20.400 35.990 C 20.400 35.776,20.655 35.600,20.967 35.600 C 21.279 35.600,21.796 35.500,22.116 35.377 C 22.435 35.254,22.990 35.447,23.348 35.806 C 23.707 36.164,24.000 36.300,24.000 36.109 C 24.000 35.021,22.403 34.584,20.200 35.069 M124.267 35.067 C 123.696 35.637,124.039 36.007,124.774 35.614 C 125.916 35.002,126.267 35.111,125.376 35.801 C 124.612 36.393,124.612 36.398,125.400 36.133 C 126.178 35.872,126.180 35.888,125.474 36.692 C 124.899 37.348,124.857 37.584,125.274 37.824 C 125.563 37.992,125.667 37.981,125.503 37.801 C 125.020 37.267,125.965 36.466,126.815 36.688 C 127.863 36.962,127.873 35.774,126.826 35.214 C 125.948 34.744,124.663 34.670,124.267 35.067 M27.600 35.933 C 28.256 36.152,28.054 37.529,27.300 37.968 C 26.633 38.356,26.633 38.376,27.300 38.388 C 27.685 38.395,28.000 38.219,28.000 37.998 C 28.000 37.353,115.685 37.654,115.900 38.300 C 116.033 38.698,107.059 38.800,71.918 38.800 C 30.159 38.800,27.767 38.838,27.717 39.500 C 27.668 40.163,29.999 40.200,71.532 40.197 L 115.400 40.193 71.700 40.298 C 30.441 40.398,27.999 40.443,27.975 41.102 C 27.956 41.616,27.850 41.553,27.574 40.863 C 27.367 40.348,27.299 39.763,27.423 39.563 C 27.719 39.084,27.328 39.103,26.374 39.614 C 25.948 39.842,25.600 40.302,25.600 40.638 C 25.600 40.973,25.744 41.158,25.919 41.050 C 26.095 40.942,26.500 41.038,26.819 41.264 C 27.293 41.599,27.271 41.634,26.700 41.450 C 26.315 41.326,26.000 41.399,26.000 41.613 C 26.000 41.826,26.270 42.000,26.600 42.000 C 26.930 42.000,27.200 42.306,27.200 42.680 C 27.200 43.209,27.093 43.253,26.720 42.880 C 26.456 42.616,25.961 42.403,25.620 42.406 C 25.074 42.412,25.071 42.458,25.600 42.800 C 25.930 43.013,26.005 43.191,25.767 43.194 C 25.039 43.204,24.783 42.702,25.238 42.154 C 25.770 41.514,25.313 40.671,24.585 40.950 C 24.292 41.063,23.961 40.940,23.851 40.678 C 23.741 40.415,23.689 40.560,23.737 41.000 C 23.784 41.440,23.964 42.025,24.135 42.300 C 24.307 42.575,24.312 42.800,24.147 42.800 C 23.982 42.800,24.177 43.041,24.580 43.336 C 25.288 43.854,25.288 43.881,24.564 44.159 C 24.139 44.322,23.754 44.263,23.674 44.023 C 23.597 43.790,23.278 43.600,22.967 43.600 C 22.655 43.600,22.400 43.420,22.400 43.200 C 22.400 42.980,22.584 42.800,22.810 42.800 C 23.038 42.800,23.171 42.109,23.110 41.239 C 23.049 40.380,22.871 39.757,22.713 39.854 C 22.555 39.951,22.538 40.592,22.676 41.278 C 22.869 42.245,22.807 42.452,22.401 42.200 C 22.050 41.983,21.973 42.032,22.168 42.348 C 22.328 42.608,22.311 42.794,22.130 42.763 C 21.330 42.624,21.049 42.843,21.588 43.184 C 21.912 43.389,22.073 43.661,21.945 43.788 C 21.199 44.534,20.885 42.859,21.623 42.068 C 22.067 41.590,22.245 41.200,22.018 41.200 C 21.427 41.200,21.751 39.603,22.430 39.173 C 22.743 38.975,22.809 38.809,22.575 38.806 C 22.341 38.803,21.634 39.338,21.004 39.996 C 20.374 40.654,19.768 41.101,19.657 40.990 C 19.546 40.879,20.072 40.124,20.827 39.311 C 21.582 38.499,21.840 38.091,21.400 38.405 C 20.960 38.718,20.201 39.430,19.714 39.987 C 19.227 40.544,18.822 40.789,18.814 40.531 C 18.798 39.983,21.088 37.600,21.631 37.600 C 21.834 37.600,22.000 37.408,22.000 37.173 C 22.000 36.569,19.696 38.281,18.924 39.459 C 18.452 40.181,18.399 40.559,18.727 40.887 C 19.054 41.214,18.990 41.480,18.486 41.888 C 17.859 42.397,17.868 42.413,18.600 42.076 C 19.040 41.874,19.650 41.797,19.956 41.906 C 20.265 42.016,20.400 41.924,20.260 41.697 C 20.122 41.474,20.267 41.077,20.582 40.815 C 21.049 40.427,21.143 40.491,21.093 41.159 C 21.028 42.027,20.191 42.566,19.537 42.161 C 19.322 42.028,19.047 42.298,18.926 42.760 C 18.806 43.222,18.451 43.600,18.139 43.600 C 17.696 43.600,17.665 43.775,18.000 44.400 C 18.521 45.374,18.284 45.427,17.392 44.535 C 16.838 43.981,16.670 43.963,16.385 44.425 C 16.174 44.766,16.226 45.096,16.521 45.283 C 16.876 45.509,16.879 45.589,16.533 45.594 C 16.276 45.597,15.736 45.726,15.334 45.881 C 14.643 46.146,14.638 46.107,15.254 45.166 C 15.869 44.228,15.863 44.171,15.153 44.171 C 14.579 44.171,14.462 44.364,14.658 44.983 C 14.875 45.665,14.821 45.716,14.321 45.300 C 13.994 45.029,13.630 44.903,13.513 45.021 C 13.395 45.138,13.196 44.966,13.070 44.638 C 12.920 44.248,13.028 44.113,13.380 44.248 C 14.095 44.522,14.440 43.908,13.980 43.181 C 13.673 42.697,13.611 42.714,13.606 43.287 C 13.602 43.733,13.389 43.894,13.000 43.745 C 12.670 43.618,12.400 43.724,12.400 43.981 C 12.400 44.237,12.250 44.355,12.067 44.241 C 11.883 44.128,11.733 44.294,11.733 44.611 C 11.733 45.077,11.850 45.092,12.342 44.694 C 12.846 44.284,12.908 44.312,12.702 44.861 C 12.383 45.714,12.785 46.111,13.428 45.577 C 13.778 45.286,14.015 45.301,14.216 45.625 C 14.373 45.881,14.327 46.204,14.112 46.345 C 13.313 46.866,13.709 48.000,14.690 48.000 C 15.217 48.000,15.555 47.850,15.441 47.667 C 15.328 47.483,15.471 47.333,15.760 47.333 C 16.578 47.333,16.299 48.970,15.453 49.133 C 15.042 49.212,14.799 49.125,14.914 48.938 C 15.029 48.752,14.618 48.600,14.000 48.600 C 13.382 48.600,12.960 48.735,13.062 48.900 C 13.164 49.065,13.526 49.200,13.866 49.200 C 14.262 49.200,14.399 49.424,14.247 49.821 C 14.111 50.177,14.178 50.337,14.405 50.197 C 14.622 50.063,14.800 50.124,14.800 50.333 C 14.800 50.542,14.305 50.843,13.700 51.002 C 12.728 51.258,12.690 51.325,13.371 51.576 C 14.111 51.849,14.112 51.871,13.403 52.144 C 12.978 52.307,12.542 52.230,12.377 51.962 C 12.219 51.707,11.886 51.623,11.638 51.776 C 11.390 51.930,11.278 52.202,11.389 52.382 C 11.500 52.562,11.319 52.935,10.987 53.211 C 10.639 53.500,10.482 54.029,10.618 54.456 C 10.750 54.873,10.661 55.200,10.414 55.200 C 9.713 55.200,9.499 54.143,9.996 53.131 C 10.434 52.240,10.419 52.243,9.636 53.200 C 9.186 53.750,8.814 54.335,8.809 54.500 C 8.804 54.665,8.590 54.800,8.333 54.800 C 8.077 54.800,7.985 54.682,8.130 54.537 C 8.275 54.392,8.193 54.032,7.948 53.737 C 7.618 53.339,7.625 53.200,7.975 53.200 C 8.235 53.200,8.324 53.001,8.174 52.757 C 7.982 52.447,7.802 52.473,7.573 52.844 C 7.390 53.140,7.433 53.599,7.672 53.887 C 7.978 54.255,7.965 54.400,7.625 54.400 C 7.365 54.400,7.281 54.608,7.438 54.862 C 7.616 55.150,7.548 55.215,7.255 55.034 C 6.998 54.875,6.883 54.590,7.000 54.400 C 7.117 54.210,6.985 53.924,6.707 53.764 C 6.428 53.603,6.333 53.619,6.497 53.799 C 6.660 53.979,6.581 54.382,6.322 54.694 C 5.823 55.295,6.611 56.164,7.280 55.750 C 7.455 55.642,7.980 55.821,8.446 56.147 C 9.270 56.724,9.249 56.753,7.659 57.229 C 6.761 57.499,6.124 57.877,6.243 58.069 C 6.362 58.262,6.311 58.394,6.130 58.363 C 4.809 58.133,3.994 58.428,4.484 58.958 C 4.768 59.265,5.123 59.442,5.272 59.351 C 5.422 59.261,5.652 59.361,5.784 59.573 C 5.915 59.786,5.661 60.153,5.220 60.389 C 4.577 60.733,4.461 60.705,4.636 60.250 C 4.756 59.937,4.662 59.562,4.427 59.417 C 4.192 59.272,4.000 59.329,4.000 59.544 C 4.000 59.759,3.897 60.203,3.771 60.531 C 3.629 60.901,3.838 61.222,4.321 61.375 C 5.638 61.793,3.357 63.900,1.366 64.105 C 0.129 64.232,0.304 64.286,2.200 64.361 C 3.520 64.413,4.960 64.605,5.400 64.788 C 5.863 64.980,4.895 65.028,3.100 64.902 L 0.000 64.685 0.000 66.342 L 0.000 68.000 1.767 68.000 C 2.806 68.000,3.616 67.794,3.735 67.500 C 3.896 67.100,3.943 67.100,3.968 67.500 C 3.986 67.775,4.300 68.000,4.667 68.000 C 5.033 68.000,5.198 68.135,5.033 68.300 C 4.868 68.465,3.713 68.583,2.467 68.562 C 1.190 68.540,0.855 68.594,1.700 68.685 C 3.633 68.893,3.633 69.505,1.700 69.722 C 0.756 69.828,0.913 69.858,2.124 69.802 C 4.512 69.691,4.064 70.292,1.600 70.505 L -0.200 70.660 1.820 70.730 C 2.968 70.770,4.082 70.584,4.401 70.300 C 4.874 69.878,4.883 69.904,4.461 70.464 C 4.122 70.914,4.096 71.212,4.381 71.388 C 4.611 71.531,4.800 71.437,4.800 71.181 C 4.800 70.924,5.070 70.818,5.400 70.945 C 6.066 71.200,6.230 70.590,5.600 70.200 C 5.380 70.064,5.211 69.648,5.225 69.276 C 5.244 68.786,5.350 68.848,5.612 69.500 C 6.005 70.478,6.638 70.685,6.893 69.920 C 6.992 69.625,7.157 69.710,7.322 70.141 C 7.472 70.531,7.428 70.741,7.223 70.614 C 6.789 70.346,5.543 71.985,5.829 72.448 C 5.937 72.622,6.245 72.712,6.513 72.648 C 6.781 72.584,6.857 72.609,6.683 72.704 C 6.509 72.800,6.594 73.175,6.871 73.539 C 7.149 73.903,6.857 73.750,6.224 73.200 C 5.388 72.474,5.139 72.386,5.316 72.880 C 5.487 73.357,5.391 73.495,4.992 73.342 C 4.680 73.222,4.441 73.006,4.460 72.862 C 4.565 72.071,4.350 71.584,3.993 71.804 C 3.770 71.942,3.691 72.223,3.817 72.428 C 3.944 72.632,3.812 72.803,3.524 72.806 C 3.143 72.811,3.164 72.918,3.600 73.200 C 4.032 73.479,3.584 73.606,2.000 73.654 L -0.200 73.720 1.600 74.000 L 3.400 74.280 1.700 74.340 L 0.000 74.400 0.000 76.778 L 0.000 79.156 1.900 79.306 L 3.800 79.456 1.900 79.528 C -0.843 79.632,-1.011 81.463,1.700 81.707 L 3.400 81.860 1.700 81.930 C 0.765 81.969,0.000 82.198,0.000 82.440 C 0.000 82.715,0.662 82.828,1.762 82.740 C 2.731 82.663,3.440 82.735,3.338 82.900 C 3.236 83.065,2.443 83.200,1.576 83.200 L 0.000 83.200 0.000 92.439 L 0.000 101.677 1.962 101.539 C 3.042 101.462,3.841 101.535,3.739 101.700 C 3.636 101.865,2.753 102.000,1.776 102.000 C 0.131 102.000,-0.000 102.077,-0.000 103.037 C -0.000 104.071,0.007 104.073,2.836 103.902 L 5.672 103.730 5.496 104.927 C 5.344 105.963,5.387 106.032,5.820 105.441 C 6.199 104.922,6.371 104.883,6.533 105.279 C 6.665 105.601,6.862 105.419,7.050 104.800 L 7.355 103.800 7.638 104.800 L 7.920 105.800 7.960 104.857 C 7.988 104.192,8.176 103.982,8.600 104.145 C 8.930 104.271,9.200 104.201,9.200 103.987 C 9.200 103.748,12.864 103.600,18.773 103.600 L 28.346 103.600 28.619 104.500 C 28.769 104.995,29.366 105.873,29.946 106.450 C 30.526 107.028,31.323 107.973,31.719 108.550 C 32.114 109.128,32.802 109.600,33.247 109.600 C 33.692 109.600,34.808 110.103,35.728 110.717 C 36.648 111.332,37.903 112.052,38.519 112.317 C 39.383 112.690,62.624 112.799,140.519 112.796 L 241.400 112.792 243.545 111.793 C 244.725 111.244,246.245 110.328,246.923 109.758 C 247.600 109.188,248.554 108.569,249.043 108.384 C 252.257 107.162,258.400 97.128,258.400 93.100 C 258.400 92.716,259.006 91.727,259.747 90.901 C 263.866 86.311,264.831 76.950,261.542 73.484 L 260.323 72.200 261.116 73.400 C 263.643 77.223,263.004 85.174,259.837 89.325 C 259.113 90.274,258.062 92.560,257.411 94.600 C 255.469 100.692,251.352 106.471,247.600 108.372 C 246.830 108.763,245.178 109.710,243.928 110.478 C 240.701 112.461,244.109 112.400,136.524 112.400 L 41.173 112.400 39.262 111.431 C 35.548 109.549,35.082 107.381,35.283 92.897 C 35.445 81.257,35.807 79.507,38.621 76.779 L 40.044 75.400 94.722 75.200 L 149.400 75.000 151.600 73.892 C 152.810 73.283,154.880 72.630,156.200 72.441 C 157.654 72.233,158.097 72.078,157.324 72.049 C 156.622 72.022,155.924 71.801,155.774 71.557 C 155.592 71.263,155.769 71.200,156.303 71.369 C 156.849 71.543,157.187 71.410,157.362 70.955 C 157.577 70.395,157.520 70.369,157.009 70.792 C 156.480 71.232,156.433 71.135,156.650 70.049 C 156.790 69.348,156.732 68.800,156.518 68.800 C 156.308 68.800,156.151 69.187,156.168 69.660 C 156.186 70.132,155.930 70.596,155.600 70.690 C 155.194 70.806,155.151 70.753,155.466 70.528 C 156.258 69.962,155.082 68.840,153.418 68.576 C 152.232 68.387,151.981 68.449,152.234 68.868 C 152.499 69.310,152.443 69.310,151.901 68.871 C 151.541 68.580,151.346 68.085,151.467 67.771 C 151.703 67.153,152.240 67.018,152.538 67.500 C 152.858 68.017,155.400 67.840,155.400 67.300 C 155.400 66.709,156.177 66.618,156.250 67.200 C 156.278 67.420,156.322 67.780,156.350 68.000 C 156.417 68.540,159.200 68.514,159.200 67.974 C 159.200 67.160,158.369 66.000,157.786 66.000 C 157.087 66.000,157.011 66.636,157.662 67.038 C 157.972 67.230,158.017 67.140,157.798 66.762 C 157.618 66.453,157.626 66.340,157.814 66.512 C 158.278 66.934,158.409 68.000,157.997 68.000 C 157.113 68.000,156.472 67.477,156.684 66.927 C 156.984 66.143,156.129 65.614,154.549 65.606 C 153.861 65.603,153.074 65.330,152.800 65.000 C 152.399 64.516,152.408 64.399,152.851 64.394 C 153.313 64.389,153.314 64.333,152.855 64.042 C 152.394 63.751,152.394 63.668,152.855 63.513 C 153.305 63.362,153.295 63.201,152.800 62.588 C 152.454 62.161,152.412 61.974,152.700 62.147 C 153.363 62.545,153.380 60.740,152.720 60.080 C 152.042 59.402,150.930 59.484,150.643 60.233 C 150.308 61.104,150.315 61.118,151.062 61.056 C 152.006 60.976,152.548 63.058,151.670 63.394 C 151.315 63.531,151.153 63.514,151.310 63.357 C 151.467 63.200,151.191 62.870,150.698 62.623 C 149.978 62.264,149.826 61.900,149.931 60.788 C 150.054 59.494,150.023 59.452,149.480 60.177 C 148.933 60.908,148.857 60.914,148.220 60.277 C 147.848 59.905,147.331 59.614,147.071 59.632 C 146.728 59.655,146.724 59.714,147.058 59.851 C 147.761 60.139,147.200 61.660,146.448 61.503 C 146.026 61.415,145.835 61.024,145.901 60.384 C 145.961 59.799,145.876 59.594,145.691 59.879 C 145.489 60.188,145.171 60.230,144.793 59.996 C 144.293 59.687,144.289 59.557,144.762 59.117 C 145.177 58.731,145.246 58.726,145.035 59.100 C 144.641 59.797,145.295 59.724,146.224 58.967 C 146.855 58.453,146.873 58.374,146.320 58.547 C 145.820 58.703,145.706 58.589,145.888 58.114 C 146.067 57.650,145.987 57.561,145.606 57.796 C 145.254 58.014,145.172 57.969,145.362 57.662 C 145.519 57.408,145.457 57.200,145.224 57.200 C 144.991 57.200,144.800 57.342,144.800 57.515 C 144.800 57.688,144.440 57.857,144.000 57.890 C 143.560 57.923,143.200 57.801,143.200 57.619 C 143.200 57.079,145.278 56.718,145.738 57.178 C 146.328 57.768,146.667 57.704,146.667 57.000 C 146.667 56.670,146.358 56.400,145.980 56.400 C 145.221 56.400,144.691 54.669,145.273 54.087 C 145.478 53.882,145.385 53.733,145.052 53.733 C 144.658 53.733,144.529 54.059,144.641 54.767 C 144.789 55.701,144.753 55.734,144.263 55.106 C 143.965 54.725,143.604 54.530,143.460 54.673 C 143.317 54.816,143.186 54.588,143.168 54.167 C 143.148 53.667,143.061 53.590,142.920 53.946 C 142.800 54.247,143.137 54.877,143.667 55.346 C 144.198 55.816,144.556 56.161,144.463 56.114 C 144.371 56.067,143.994 56.189,143.626 56.386 C 143.218 56.605,142.731 56.587,142.378 56.342 C 141.950 56.043,141.926 55.888,142.288 55.740 C 142.666 55.586,142.669 55.426,142.300 55.031 C 141.785 54.480,140.400 54.654,140.400 55.270 C 140.400 55.478,140.568 55.544,140.772 55.417 C 140.977 55.291,141.261 55.374,141.402 55.603 C 141.544 55.832,141.421 55.970,141.130 55.910 C 140.838 55.849,140.649 56.038,140.710 56.330 C 140.770 56.621,140.632 56.744,140.403 56.602 C 140.174 56.461,140.091 56.177,140.217 55.972 C 140.344 55.768,140.246 55.600,140.000 55.600 C 139.754 55.600,139.656 55.432,139.783 55.228 C 139.909 55.023,139.804 54.726,139.548 54.568 C 139.221 54.366,139.157 54.576,139.333 55.276 C 139.596 56.324,138.699 58.033,138.166 57.499 C 138.001 57.335,138.077 57.200,138.333 57.200 C 138.590 57.200,138.800 57.020,138.800 56.800 C 138.800 56.580,138.429 56.400,137.976 56.400 C 137.456 56.400,137.258 56.570,137.438 56.862 C 137.616 57.150,137.548 57.215,137.255 57.034 C 136.609 56.635,137.081 56.000,138.024 56.000 C 138.898 56.000,139.129 54.577,138.300 54.298 C 137.907 54.166,137.914 53.993,138.332 53.486 C 138.742 52.989,138.758 52.677,138.401 52.121 C 138.025 51.533,137.977 51.523,138.145 52.067 C 138.362 52.774,137.575 53.305,136.964 52.863 C 136.539 52.556,136.503 51.588,136.894 50.965 C 137.070 50.684,136.744 50.556,135.968 50.602 C 135.308 50.641,134.670 50.513,134.549 50.317 C 134.151 49.673,133.308 50.782,133.420 51.803 C 133.480 52.351,133.365 52.800,133.165 52.800 C 132.964 52.800,132.800 52.260,132.800 51.600 C 132.800 50.940,132.590 50.400,132.333 50.400 C 132.077 50.400,131.980 50.286,132.119 50.147 C 132.258 50.008,132.227 49.603,132.049 49.247 C 131.836 48.820,131.966 48.372,132.432 47.931 C 133.021 47.372,133.174 47.356,133.357 47.831 C 133.477 48.144,133.341 48.400,133.054 48.400 C 132.768 48.400,132.533 48.667,132.533 48.994 C 132.533 49.443,132.663 49.480,133.067 49.145 C 133.730 48.594,133.776 49.264,133.120 49.920 C 132.774 50.266,132.768 50.400,133.096 50.400 C 133.347 50.400,133.686 50.184,133.849 49.920 C 134.251 49.270,134.301 47.614,133.912 47.854 C 133.740 47.960,133.600 47.857,133.600 47.624 C 133.600 47.391,133.791 47.200,134.024 47.200 C 134.257 47.200,134.336 47.020,134.200 46.800 C 133.830 46.201,132.940 46.317,132.197 47.060 C 131.584 47.673,131.547 47.666,131.669 46.960 C 131.766 46.395,131.594 46.230,131.000 46.317 C 130.348 46.412,130.310 46.359,130.797 46.033 C 131.140 45.803,131.543 45.783,131.745 45.985 C 132.253 46.493,133.200 46.026,133.200 45.268 C 133.200 44.777,133.350 44.836,133.823 45.511 C 134.450 46.407,135.493 46.798,134.962 45.938 C 134.785 45.652,134.852 45.585,135.139 45.762 C 135.420 45.936,135.754 45.647,135.991 45.024 C 136.376 44.012,137.200 43.603,137.200 44.424 C 137.200 44.657,137.020 44.736,136.800 44.600 C 136.135 44.189,136.350 44.750,137.173 45.573 C 137.805 46.205,138.027 46.249,138.387 45.815 C 138.727 45.407,138.666 45.298,138.124 45.342 C 137.671 45.379,137.417 45.116,137.410 44.600 C 137.403 44.009,137.124 43.795,136.344 43.782 C 135.579 43.769,135.350 43.925,135.512 44.348 C 135.648 44.702,135.566 44.826,135.302 44.663 C 135.064 44.516,134.796 44.612,134.707 44.878 C 134.582 45.253,134.480 45.253,134.250 44.880 C 134.086 44.616,134.143 44.400,134.376 44.400 C 134.609 44.400,134.800 44.220,134.800 44.000 C 134.800 43.780,134.530 43.600,134.200 43.600 C 133.870 43.600,133.600 43.780,133.600 44.000 C 133.600 44.220,133.420 44.400,133.200 44.400 C 132.980 44.400,132.821 44.265,132.847 44.100 C 132.987 43.213,132.680 40.715,132.515 41.400 C 132.244 42.527,131.744 42.957,131.383 42.373 C 131.173 42.032,131.240 41.978,131.600 42.200 C 131.939 42.410,132.027 42.367,131.849 42.079 C 131.471 41.468,130.401 41.938,130.656 42.602 C 130.923 43.296,129.654 43.135,129.211 42.418 C 128.962 42.015,128.783 42.084,128.446 42.714 C 128.115 43.333,128.129 43.580,128.503 43.718 C 128.898 43.863,128.898 44.009,128.500 44.430 C 128.088 44.867,128.000 44.847,128.000 44.313 C 128.000 43.958,127.775 43.576,127.500 43.465 C 127.100 43.304,127.100 43.257,127.500 43.232 C 127.775 43.214,128.000 42.818,128.000 42.351 C 128.000 41.721,127.871 41.607,127.500 41.909 C 126.810 42.471,123.926 43.643,124.159 43.267 C 124.637 42.493,123.665 41.848,122.730 42.319 C 121.996 42.689,121.959 42.768,122.559 42.694 C 122.976 42.642,123.394 42.870,123.489 43.200 C 123.593 43.565,123.531 43.639,123.330 43.388 C 123.149 43.162,122.600 43.002,122.110 43.033 C 121.621 43.064,121.317 42.935,121.434 42.745 C 121.632 42.425,121.037 42.229,120.270 42.363 C 120.089 42.394,120.044 42.252,120.171 42.047 C 120.297 41.843,120.761 41.769,121.200 41.884 C 122.021 42.099,122.317 41.443,121.600 41.000 C 121.380 40.864,121.200 40.954,121.200 41.200 C 121.200 41.446,121.032 41.544,120.827 41.417 C 120.464 41.192,119.200 42.657,119.200 43.303 C 119.200 43.482,119.582 43.424,120.048 43.174 C 120.653 42.850,120.818 42.847,120.623 43.163 C 120.466 43.416,120.733 43.749,121.243 43.938 C 121.773 44.134,121.961 44.377,121.704 44.535 C 121.092 44.914,119.952 44.402,120.268 43.890 C 120.429 43.630,120.291 43.556,119.914 43.701 C 119.575 43.831,119.120 43.760,118.903 43.543 C 118.644 43.284,118.293 43.364,117.880 43.777 C 117.532 44.125,117.148 44.239,117.020 44.032 C 116.892 43.826,117.133 43.548,117.553 43.415 C 118.100 43.241,118.296 42.846,118.239 42.029 C 118.181 41.186,118.309 40.944,118.730 41.105 C 119.164 41.272,119.134 41.072,118.604 40.262 C 118.221 39.678,117.749 39.200,117.554 39.200 C 117.359 39.200,117.185 38.885,117.166 38.500 C 117.147 38.115,116.973 38.331,116.779 38.980 C 116.441 40.113,116.721 41.128,117.088 40.100 C 117.447 39.095,117.977 39.636,117.873 40.900 C 117.815 41.615,117.594 42.200,117.383 42.200 C 117.172 42.200,117.043 41.885,117.095 41.500 C 117.148 41.115,117.002 40.800,116.772 40.800 C 116.541 40.800,116.456 40.968,116.583 41.172 C 116.709 41.377,116.630 41.658,116.407 41.796 C 116.144 41.958,116.036 41.128,116.100 39.445 C 116.155 38.014,116.013 36.656,115.785 36.427 C 115.504 36.145,101.158 35.977,71.285 35.905 C 47.038 35.847,27.380 35.860,27.600 35.933 M19.999 36.300 C 19.998 36.465,19.471 36.953,18.827 37.384 C 18.184 37.815,17.745 38.310,17.852 38.484 C 17.959 38.658,17.857 38.800,17.624 38.800 C 16.909 38.800,17.151 38.013,18.182 36.982 C 19.141 36.023,20.001 35.700,19.999 36.300 M25.200 36.411 C 25.200 37.245,26.705 37.597,27.258 36.892 C 27.758 36.253,27.740 36.246,27.025 36.800 C 26.333 37.336,26.275 37.334,26.481 36.782 C 26.635 36.369,26.461 36.145,25.956 36.107 C 25.540 36.075,25.200 36.212,25.200 36.411 M24.612 37.580 C 24.465 37.818,24.132 37.891,23.872 37.742 C 23.613 37.594,23.533 37.619,23.697 37.799 C 23.860 37.979,23.806 38.352,23.577 38.628 C 23.289 38.975,23.290 39.208,23.581 39.388 C 23.811 39.531,24.000 39.376,24.000 39.043 C 24.000 38.711,24.314 38.264,24.697 38.050 C 25.080 37.835,25.278 37.545,25.137 37.403 C 24.996 37.262,24.760 37.342,24.612 37.580 M126.466 37.720 C 126.119 38.139,126.147 38.267,126.589 38.267 C 126.906 38.267,127.055 38.089,126.921 37.872 C 126.780 37.645,126.882 37.603,127.158 37.774 C 127.526 38.002,127.529 38.203,127.170 38.636 C 126.799 39.084,126.842 39.200,127.379 39.200 C 127.846 39.200,128.016 38.931,127.928 38.331 C 127.772 37.271,127.079 36.982,126.466 37.720 M25.300 38.900 C 25.355 39.175,25.175 39.355,24.900 39.300 C 24.304 39.181,24.230 39.848,24.800 40.200 C 25.020 40.336,25.200 40.269,25.200 40.051 C 25.200 39.832,25.563 39.539,26.006 39.398 C 26.449 39.257,26.708 38.975,26.582 38.771 C 26.240 38.217,25.185 38.323,25.300 38.900 M119.006 40.010 C 119.272 40.440,120.800 40.780,120.800 40.409 C 120.800 40.235,120.355 40.008,119.812 39.904 C 119.269 39.801,118.906 39.848,119.006 40.010 M124.750 40.200 C 124.722 40.310,124.655 40.580,124.600 40.800 C 124.545 41.020,124.475 41.335,124.444 41.500 C 124.413 41.665,124.213 41.530,124.000 41.200 C 123.787 40.870,123.615 40.780,123.619 41.000 C 123.637 42.085,124.705 42.816,125.712 42.434 C 126.788 42.024,127.531 41.200,126.824 41.200 C 126.591 41.200,126.400 41.380,126.400 41.600 C 126.400 41.820,125.939 42.000,125.376 42.000 C 124.752 42.000,124.456 41.833,124.617 41.573 C 124.762 41.338,125.178 41.248,125.540 41.374 C 126.112 41.572,126.108 41.530,125.506 41.061 C 125.125 40.764,124.930 40.404,125.073 40.260 C 125.216 40.117,125.213 40.000,125.067 40.000 C 124.920 40.000,124.778 40.090,124.750 40.200 M127.455 40.600 C 127.685 41.199,128.122 41.360,129.140 41.221 C 129.437 41.180,129.584 41.302,129.467 41.492 C 129.349 41.683,129.438 42.100,129.664 42.419 C 130.001 42.895,130.035 42.874,129.853 42.307 C 129.686 41.787,129.951 41.524,130.915 41.250 C 132.121 40.908,132.078 40.886,130.217 40.895 C 129.090 40.901,128.170 40.710,128.084 40.452 C 128.001 40.204,127.774 40.000,127.579 40.000 C 127.384 40.000,127.329 40.270,127.455 40.600 M10.067 41.481 C 10.373 41.850,10.656 41.886,11.000 41.600 C 11.348 41.312,11.643 41.369,11.996 41.795 C 12.667 42.604,13.162 42.560,13.097 41.697 C 13.056 41.148,12.670 40.989,11.336 40.973 C 9.963 40.955,9.714 41.055,10.067 41.481 M136.576 41.406 C 136.149 41.739,136.007 41.964,136.260 41.906 C 136.513 41.848,136.693 41.980,136.660 42.200 C 136.627 42.420,136.356 42.572,136.057 42.537 C 135.642 42.489,135.625 42.583,135.985 42.937 C 136.343 43.289,136.684 43.136,137.409 42.300 C 138.583 40.944,138.741 40.930,138.498 42.200 C 138.333 43.061,138.453 43.200,139.353 43.200 C 140.547 43.200,140.737 42.394,139.771 41.429 C 138.976 40.633,137.580 40.623,136.576 41.406 M7.848 42.014 C 6.254 42.491,4.893 43.868,4.572 45.328 C 4.424 46.002,4.054 46.803,3.751 47.106 C 3.095 47.762,3.032 48.400,3.624 48.400 C 3.857 48.400,3.948 48.239,3.826 48.042 C 3.704 47.845,3.850 47.589,4.151 47.474 C 4.452 47.359,5.081 46.473,5.549 45.506 C 6.118 44.331,6.931 43.449,8.000 42.848 C 10.214 41.603,10.163 41.321,7.848 42.014 M14.241 42.878 C 14.697 43.761,14.980 43.935,15.514 43.661 C 15.891 43.467,16.418 43.387,16.685 43.482 C 16.952 43.578,17.492 43.453,17.885 43.203 C 18.464 42.837,18.276 42.786,16.900 42.937 C 15.929 43.044,15.088 42.942,14.938 42.700 C 14.784 42.451,14.867 42.394,15.138 42.562 C 15.392 42.719,15.600 42.646,15.600 42.400 C 15.600 42.154,15.825 42.082,16.100 42.241 C 16.375 42.399,16.462 42.376,16.293 42.190 C 15.351 41.154,13.645 41.726,14.241 42.878 M134.400 41.957 C 134.400 42.227,134.232 42.344,134.028 42.217 C 133.823 42.091,133.550 42.157,133.421 42.366 C 133.292 42.574,133.349 42.845,133.548 42.968 C 133.988 43.240,135.018 42.085,134.657 41.724 C 134.516 41.582,134.400 41.687,134.400 41.957 M94.100 42.700 C 81.945 42.759,62.055 42.759,49.900 42.700 C 37.745 42.641,47.690 42.593,72.000 42.593 C 96.310 42.593,106.255 42.641,94.100 42.700 M125.612 43.786 C 125.200 44.282,125.314 44.348,126.369 44.214 C 127.053 44.128,127.514 44.216,127.393 44.411 C 127.273 44.606,126.881 44.652,126.522 44.515 C 126.104 44.354,125.967 44.423,126.141 44.704 C 126.634 45.503,125.757 45.575,125.086 44.791 C 124.475 44.078,124.477 43.996,125.114 43.624 C 126.065 43.070,126.176 43.106,125.612 43.786 M140.211 44.018 C 140.353 44.247,140.251 44.697,139.985 45.018 C 139.596 45.487,139.628 45.600,140.151 45.600 C 140.577 45.600,140.800 45.256,140.800 44.600 C 140.800 44.050,140.609 43.600,140.376 43.600 C 140.143 43.600,140.069 43.788,140.211 44.018 M7.523 45.100 C 6.818 45.921,6.290 46.800,6.501 46.800 C 6.583 46.800,7.049 46.260,7.537 45.600 C 8.501 44.296,8.492 43.972,7.523 45.100 M24.800 44.954 C 24.800 45.039,24.350 45.403,23.800 45.763 C 23.246 46.126,22.800 46.230,22.800 45.996 C 22.800 45.764,23.205 45.411,23.700 45.212 C 24.817 44.763,24.800 44.767,24.800 44.954 M28.000 45.587 C 28.000 46.112,27.806 46.300,27.418 46.151 C 26.959 45.975,26.937 45.812,27.318 45.379 C 27.956 44.653,28.000 44.666,28.000 45.587 M117.200 45.200 C 117.200 45.420,117.965 45.630,118.900 45.667 L 120.600 45.734 119.100 45.891 C 118.275 45.978,117.600 46.217,117.600 46.424 C 117.600 46.631,117.240 46.800,116.800 46.800 C 116.356 46.800,116.000 46.533,116.000 46.200 C 116.000 45.870,116.191 45.600,116.424 45.600 C 116.657 45.600,116.736 45.420,116.600 45.200 C 116.464 44.980,116.543 44.800,116.776 44.800 C 117.009 44.800,117.200 44.980,117.200 45.200 M9.762 45.662 C 9.591 45.937,9.651 46.015,9.911 45.855 C 10.149 45.708,10.458 45.770,10.596 45.993 C 10.926 46.528,11.600 46.516,11.600 45.976 C 11.600 45.743,11.420 45.664,11.200 45.800 C 10.980 45.936,10.800 45.857,10.800 45.624 C 10.800 45.058,10.119 45.083,9.762 45.662 M135.680 46.080 C 135.416 46.344,135.221 47.109,135.246 47.780 C 135.276 48.566,135.362 48.731,135.487 48.242 C 135.643 47.633,135.750 47.594,136.034 48.042 C 136.288 48.442,136.389 48.282,136.394 47.476 C 136.397 46.818,136.568 46.457,136.807 46.604 C 137.030 46.742,137.109 47.023,136.983 47.228 C 136.856 47.432,137.028 47.600,137.364 47.600 C 137.742 47.600,137.887 47.828,137.746 48.198 C 137.619 48.526,137.310 48.672,137.058 48.521 C 136.806 48.370,136.870 48.585,137.200 48.998 C 137.744 49.680,137.735 49.725,137.100 49.487 C 136.715 49.343,136.400 49.399,136.400 49.613 C 136.400 49.826,136.625 50.014,136.900 50.031 C 137.175 50.047,137.725 50.123,138.122 50.198 C 138.740 50.316,138.769 50.242,138.322 49.691 C 137.935 49.213,137.929 49.124,138.300 49.347 C 138.618 49.538,138.800 49.411,138.800 49.000 C 138.800 48.644,138.620 48.464,138.400 48.600 C 138.180 48.736,138.000 48.657,138.000 48.424 C 138.000 48.191,138.174 48.000,138.387 48.000 C 138.601 48.000,138.671 47.730,138.545 47.400 C 138.418 47.070,138.083 46.800,137.800 46.800 C 137.517 46.800,137.182 46.530,137.055 46.200 C 136.777 45.475,136.324 45.436,135.680 46.080 M140.412 46.600 C 140.412 47.482,141.083 48.020,141.832 47.739 C 142.498 47.489,142.531 47.536,142.077 48.094 C 141.624 48.652,141.663 48.709,142.373 48.523 C 142.823 48.405,143.075 48.122,142.934 47.893 C 142.781 47.645,142.871 47.597,143.158 47.774 C 143.510 47.991,143.521 48.213,143.200 48.600 C 142.879 48.987,142.890 49.209,143.242 49.426 C 143.547 49.615,143.619 49.555,143.438 49.262 C 143.027 48.597,143.812 48.692,144.380 49.376 C 144.647 49.697,145.155 49.841,145.529 49.701 C 146.114 49.483,146.129 49.537,145.651 50.125 C 145.178 50.707,145.192 50.800,145.751 50.800 C 148.110 50.800,145.568 47.587,142.984 47.303 C 141.893 47.183,140.868 46.885,140.706 46.642 C 140.538 46.390,140.412 46.372,140.412 46.600 M281.100 47.076 C 280.715 47.176,280.400 47.436,280.400 47.653 C 280.400 47.874,280.619 47.905,280.900 47.724 C 281.175 47.546,305.070 47.309,334.000 47.197 L 386.600 46.994 334.200 46.943 C 305.380 46.916,281.485 46.975,281.100 47.076 M18.762 47.549 C 18.851 47.577,18.598 47.960,18.200 48.400 C 17.417 49.265,17.901 49.521,18.767 48.700 C 19.203 48.286,19.203 48.351,18.768 49.072 C 18.349 49.767,18.090 49.862,17.488 49.540 C 16.758 49.149,16.757 49.117,17.467 48.536 C 18.029 48.075,18.052 47.980,17.567 48.129 C 17.218 48.236,16.933 48.097,16.933 47.820 C 16.933 47.414,17.885 47.273,18.762 47.549 M276.481 47.978 C 274.684 48.590,273.290 49.620,273.203 50.400 C 273.191 50.510,273.027 51.261,272.840 52.069 C 272.404 53.945,273.229 53.781,273.926 51.853 C 274.189 51.127,274.673 50.533,275.002 50.533 C 275.731 50.533,275.761 50.860,275.100 51.598 C 274.825 51.905,275.281 51.581,276.114 50.878 C 276.947 50.175,277.902 49.600,278.238 49.600 C 278.573 49.600,278.736 49.420,278.600 49.200 C 278.464 48.980,278.588 48.797,278.876 48.794 C 279.257 48.789,279.236 48.682,278.800 48.400 C 278.260 48.051,278.510 47.828,279.300 47.953 C 279.465 47.979,279.600 47.820,279.600 47.600 C 279.600 47.055,278.966 47.132,276.481 47.978 M389.739 47.932 C 390.103 48.335,390.269 48.830,390.108 49.032 C 389.946 49.235,390.066 49.181,390.374 48.912 C 391.252 48.149,393.843 49.797,394.703 51.665 C 395.548 53.501,396.080 53.673,395.586 51.951 C 394.863 49.432,392.196 47.337,390.805 48.197 C 390.579 48.336,390.286 48.169,390.154 47.825 C 390.022 47.481,389.726 47.200,389.495 47.200 C 389.265 47.200,389.374 47.530,389.739 47.932 M144.794 48.676 C 144.797 48.498,144.983 48.466,145.207 48.604 C 145.430 48.742,145.504 49.032,145.371 49.247 C 145.081 49.717,143.997 48.926,144.006 48.251 C 144.009 48.003,144.187 48.070,144.400 48.400 C 144.613 48.730,144.791 48.854,144.794 48.676 M134.666 49.133 C 134.740 49.426,134.800 49.741,134.800 49.833 C 134.800 49.925,135.070 50.000,135.400 50.000 C 135.730 50.000,136.000 49.820,136.000 49.600 C 136.000 49.380,135.745 49.200,135.433 49.200 C 135.122 49.200,134.791 49.065,134.699 48.900 C 134.607 48.735,134.592 48.840,134.666 49.133 M278.400 48.573 C 278.400 49.198,275.936 50.404,275.340 50.070 C 274.756 49.744,274.821 49.612,275.834 49.063 C 276.930 48.470,278.400 48.189,278.400 48.573 M16.000 50.043 C 16.000 50.286,16.270 50.382,16.600 50.255 C 16.930 50.129,17.200 50.199,17.200 50.413 C 17.200 51.010,16.157 50.871,15.600 50.200 C 15.256 49.785,15.241 49.600,15.551 49.600 C 15.798 49.600,16.000 49.799,16.000 50.043 M4.800 50.400 C 4.800 50.646,4.620 50.736,4.400 50.600 C 4.180 50.464,4.000 50.543,4.000 50.776 C 4.000 51.286,4.408 51.310,5.143 50.844 C 5.521 50.604,5.551 50.417,5.243 50.226 C 4.999 50.076,4.800 50.154,4.800 50.400 M6.400 50.600 C 6.400 50.930,6.591 51.200,6.824 51.200 C 7.057 51.200,7.133 50.975,6.994 50.700 C 6.855 50.425,7.048 50.560,7.424 51.000 C 8.031 51.711,8.079 51.718,7.854 51.067 C 7.714 50.664,7.600 50.259,7.600 50.167 C 7.600 50.075,7.330 50.000,7.000 50.000 C 6.670 50.000,6.400 50.270,6.400 50.600 M11.800 50.400 C 11.936 50.620,12.296 50.800,12.600 50.800 C 12.904 50.800,13.264 50.620,13.400 50.400 C 13.541 50.172,13.196 50.000,12.600 50.000 C 12.004 50.000,11.659 50.172,11.800 50.400 M139.010 51.654 C 139.259 52.947,139.600 53.070,139.600 51.867 C 139.600 51.280,139.430 50.800,139.223 50.800 C 139.016 50.800,138.920 51.184,139.010 51.654 M135.892 52.032 C 135.990 53.333,136.790 54.106,137.462 53.548 C 137.907 53.180,137.967 53.220,137.764 53.749 C 137.625 54.112,137.708 54.648,137.949 54.938 C 138.278 55.334,138.243 55.467,137.811 55.467 C 137.494 55.467,137.328 55.317,137.441 55.133 C 137.555 54.950,137.356 54.800,137.000 54.800 C 136.644 54.800,136.451 54.640,136.572 54.445 C 136.693 54.250,136.492 53.845,136.126 53.545 C 135.540 53.065,135.486 53.097,135.672 53.819 C 135.994 55.071,133.809 55.145,133.159 53.905 C 132.698 53.027,132.707 53.021,133.473 53.700 C 134.319 54.450,135.200 54.626,135.200 54.044 C 135.200 53.849,134.904 53.714,134.543 53.744 C 134.182 53.775,133.804 53.567,133.704 53.283 C 133.570 52.903,133.808 52.837,134.600 53.036 C 135.799 53.337,135.995 52.028,134.800 51.703 C 134.267 51.557,134.267 51.586,134.800 51.963 C 135.318 52.330,135.304 52.389,134.700 52.394 C 133.990 52.400,133.781 51.953,134.267 51.467 C 134.842 50.891,135.832 51.235,135.892 52.032 M145.641 51.849 C 145.876 52.133,145.975 52.516,145.861 52.702 C 145.606 53.115,146.268 54.265,146.581 53.952 C 147.006 53.528,146.326 51.333,145.770 51.333 C 145.360 51.333,145.326 51.470,145.641 51.849 M12.400 53.000 C 12.400 53.330,12.085 53.606,11.700 53.613 C 11.067 53.624,11.074 53.681,11.776 54.213 C 12.264 54.582,12.645 54.651,12.801 54.398 C 13.305 53.583,15.102 54.093,14.857 54.982 C 14.663 55.688,14.612 55.704,14.487 55.100 C 14.407 54.715,14.144 54.400,13.902 54.400 C 13.661 54.400,13.103 54.715,12.663 55.100 C 12.223 55.485,11.994 55.575,12.155 55.300 C 12.316 55.025,12.302 54.797,12.124 54.794 C 10.999 54.773,10.647 54.032,11.378 53.224 C 12.268 52.241,12.400 52.212,12.400 53.000 M266.900 53.612 C 266.405 53.811,266.000 54.250,266.000 54.587 C 266.000 55.460,266.653 55.345,267.351 54.348 C 267.783 53.732,268.234 53.551,268.983 53.695 C 269.553 53.804,270.115 53.737,270.233 53.546 C 270.511 53.096,268.064 53.145,266.900 53.612 M4.960 55.667 C 5.003 57.033,6.088 57.454,7.800 56.770 C 8.592 56.454,8.501 56.407,6.800 56.254 C 6.470 56.224,6.022 55.795,5.805 55.300 C 5.250 54.035,4.913 54.181,4.960 55.667 M135.829 56.057 C 135.829 56.455,135.606 56.865,135.335 56.970 C 135.016 57.092,134.929 56.930,135.088 56.514 C 135.246 56.103,135.176 55.968,134.896 56.141 C 134.653 56.291,134.325 56.202,134.166 55.945 C 133.985 55.652,134.050 55.584,134.338 55.762 C 134.592 55.919,134.800 55.887,134.800 55.690 C 134.800 55.494,135.031 55.333,135.314 55.333 C 135.597 55.333,135.829 55.659,135.829 56.057 M3.200 57.747 C 3.200 58.818,3.363 59.547,3.572 59.417 C 3.777 59.291,3.863 58.736,3.763 58.184 C 3.597 57.269,3.651 57.225,4.381 57.681 C 4.920 58.018,5.312 58.048,5.585 57.775 C 5.859 57.501,5.702 57.348,5.103 57.303 C 4.615 57.266,3.987 56.923,3.708 56.541 C 3.271 55.945,3.200 56.114,3.200 57.747 M10.666 56.268 C 10.519 56.415,10.712 56.910,11.095 57.368 C 11.478 57.825,11.630 58.067,11.433 57.903 C 11.235 57.740,10.860 57.784,10.599 58.001 C 10.249 58.291,10.150 58.106,10.222 57.298 C 10.341 55.978,10.333 56.000,10.667 56.000 C 10.813 56.000,10.813 56.120,10.666 56.268 M265.600 58.067 C 265.600 58.983,265.682 59.652,265.781 59.552 C 266.138 59.196,266.283 56.400,265.945 56.400 C 265.755 56.400,265.600 57.150,265.600 58.067 M152.349 60.360 C 152.651 60.551,152.829 60.912,152.746 61.163 C 152.654 61.439,152.320 61.299,151.901 60.809 C 151.182 59.970,151.396 59.756,152.349 60.360 M149.434 61.456 C 149.276 61.868,149.483 62.323,149.991 62.679 C 151.043 63.416,151.047 64.161,149.996 63.504 C 149.102 62.946,148.615 61.823,148.998 61.204 C 149.397 60.557,149.709 60.738,149.434 61.456 M13.115 62.078 C 12.794 62.561,12.277 63.021,11.966 63.101 C 11.649 63.183,11.708 63.052,12.100 62.803 C 12.485 62.560,12.800 62.099,12.800 61.780 C 12.800 61.461,13.002 61.200,13.249 61.200 C 13.540 61.200,13.493 61.509,13.115 62.078 M1.600 62.000 L -0.200 62.280 1.600 62.400 L 3.400 62.520 1.600 62.800 L -0.200 63.080 1.438 63.140 C 2.621 63.183,3.277 62.978,3.800 62.400 C 4.596 61.521,4.635 61.528,1.600 62.000 M263.831 63.967 C 262.685 65.164,262.723 66.005,263.924 65.994 C 265.052 65.984,265.590 65.418,265.746 64.077 C 265.934 62.463,265.307 62.427,263.831 63.967 M149.378 64.836 C 149.266 65.017,148.874 65.050,148.507 64.909 C 148.062 64.738,148.005 64.598,148.337 64.488 C 148.729 64.357,148.727 64.184,148.324 63.661 C 147.961 63.190,148.068 63.217,148.697 63.753 C 149.183 64.168,149.490 64.655,149.378 64.836 M152.760 65.556 C 153.288 65.962,154.014 66.217,154.374 66.123 C 154.824 66.005,155.029 66.210,155.029 66.776 C 155.029 67.229,154.887 67.600,154.714 67.600 C 154.541 67.600,154.400 67.414,154.400 67.186 C 154.400 66.901,154.158 66.901,153.624 67.187 C 153.070 67.483,152.767 67.470,152.562 67.139 C 152.374 66.835,152.468 66.776,152.838 66.968 C 153.147 67.128,153.088 67.003,152.706 66.690 C 152.325 66.377,152.130 66.004,152.273 65.860 C 152.416 65.717,152.337 65.600,152.096 65.600 C 151.855 65.600,151.576 65.915,151.474 66.300 C 151.372 66.685,151.308 66.505,151.332 65.900 C 151.382 64.607,151.492 64.581,152.760 65.556 M6.396 66.008 C 6.158 66.453,6.064 66.980,6.188 67.181 C 6.312 67.381,6.202 67.675,5.945 67.834 C 5.663 68.008,5.583 67.951,5.745 67.689 C 5.892 67.451,5.830 67.142,5.607 67.004 C 5.383 66.866,5.200 66.943,5.200 67.176 C 5.200 67.409,4.998 67.600,4.751 67.600 C 4.424 67.600,4.421 67.456,4.742 67.070 C 5.063 66.683,5.050 66.393,4.690 65.990 C 4.294 65.544,4.341 65.546,4.939 66.000 C 5.583 66.491,5.726 66.475,6.059 65.881 C 6.600 64.913,6.918 65.033,6.396 66.008 M260.483 66.300 C 260.201 66.685,260.095 66.747,260.247 66.438 C 260.427 66.072,260.363 65.976,260.062 66.162 C 259.477 66.523,259.461 67.200,260.037 67.200 C 260.277 67.200,260.931 66.840,261.491 66.400 C 262.371 65.708,262.406 65.600,261.752 65.600 C 261.336 65.600,260.765 65.915,260.483 66.300 M7.757 66.633 C 8.081 67.476,8.078 67.484,7.480 67.714 C 7.143 67.843,6.960 67.577,6.960 66.957 C 6.960 65.868,7.396 65.691,7.757 66.633 M150.800 67.014 C 150.800 67.116,150.575 67.155,150.300 67.100 C 149.983 67.037,149.801 67.469,149.803 68.283 C 149.806 69.745,149.431 69.541,149.036 67.866 C 148.839 67.033,148.896 66.812,149.252 67.032 C 149.586 67.239,149.656 67.122,149.477 66.656 C 149.259 66.089,149.344 66.049,150.009 66.405 C 150.444 66.638,150.800 66.912,150.800 67.014 M151.600 69.686 C 151.600 69.884,151.432 69.944,151.227 69.817 C 151.022 69.690,150.577 69.984,150.237 70.469 C 149.897 70.955,149.509 71.243,149.376 71.109 C 149.242 70.976,149.542 70.458,150.042 69.958 C 150.621 69.379,150.778 68.993,150.475 68.892 C 150.214 68.805,150.000 68.540,150.000 68.305 C 150.000 68.069,150.360 68.202,150.800 68.600 C 151.240 68.998,151.600 69.487,151.600 69.686 M155.200 70.120 C 155.200 70.300,154.975 70.312,154.700 70.147 C 154.343 69.933,154.353 70.036,154.734 70.506 C 155.305 71.210,155.061 72.004,154.276 71.994 C 153.941 71.990,153.954 71.890,154.319 71.659 C 154.872 71.307,154.071 70.302,153.342 70.433 C 152.074 70.661,151.468 69.890,152.580 69.463 C 152.969 69.314,153.085 69.433,152.935 69.825 C 152.780 70.229,152.902 70.336,153.330 70.171 C 153.684 70.036,153.850 69.674,153.717 69.327 C 153.516 68.803,153.600 68.793,154.342 69.257 C 154.814 69.551,155.200 69.940,155.200 70.120 M158.227 69.181 C 157.801 69.336,157.630 69.571,157.846 69.705 C 158.258 69.960,159.514 69.368,159.188 69.072 C 159.085 68.978,158.652 69.027,158.227 69.181 M145.816 70.300 C 145.754 70.685,145.868 71.209,146.071 71.464 C 146.304 71.758,146.262 72.038,145.958 72.226 C 145.663 72.408,145.581 72.355,145.745 72.089 C 145.892 71.851,145.827 71.540,145.600 71.400 C 145.373 71.260,145.291 70.977,145.417 70.772 C 145.544 70.568,145.412 70.397,145.124 70.394 C 144.743 70.389,144.764 70.282,145.200 70.000 C 145.975 69.499,145.948 69.486,145.816 70.300 M148.600 70.596 C 148.600 71.143,148.384 71.674,148.120 71.775 C 147.844 71.881,147.717 71.714,147.820 71.380 C 147.919 71.061,148.084 70.530,148.187 70.200 C 148.460 69.328,148.600 69.462,148.600 70.596 M1.600 71.600 L -0.200 71.880 1.476 71.940 C 2.398 71.973,3.264 71.820,3.400 71.600 C 3.536 71.380,3.592 71.227,3.524 71.260 C 3.456 71.293,2.590 71.446,1.600 71.600 M0.905 353.087 C 1.514 353.179,2.414 353.177,2.905 353.082 C 3.397 352.987,2.900 352.911,1.800 352.914 C 0.700 352.917,0.297 352.995,0.905 353.087 M397.500 353.082 C 397.995 353.178,398.805 353.178,399.300 353.082 C 399.795 352.987,399.390 352.909,398.400 352.909 C 397.410 352.909,397.005 352.987,397.500 353.082 M3.232 357.100 C 3.210 357.705,3.430 357.998,3.900 357.994 C 4.332 357.990,4.431 357.875,4.160 357.694 C 3.918 357.532,3.617 357.130,3.492 356.800 C 3.339 356.399,3.253 356.499,3.232 357.100 M16.000 362.356 C 16.000 363.716,17.259 365.458,17.938 365.038 C 18.462 364.715,17.602 363.600,16.829 363.600 C 16.287 363.600,16.281 362.969,16.814 361.974 C 17.140 361.365,17.097 361.200,16.614 361.200 C 16.204 361.200,16.000 361.583,16.000 362.356 M383.120 361.680 C 383.861 362.421,383.687 362.964,382.900 362.368 C 382.304 361.918,382.275 361.922,382.700 362.399 C 382.975 362.708,383.200 363.104,383.200 363.280 C 383.200 363.456,382.975 363.555,382.700 363.500 C 382.425 363.445,382.245 363.625,382.300 363.900 C 382.355 364.175,382.256 364.400,382.080 364.400 C 381.904 364.400,381.508 364.175,381.199 363.900 C 380.722 363.475,380.718 363.504,381.168 364.100 C 381.764 364.887,381.221 365.061,380.480 364.320 C 380.107 363.947,380.000 363.991,380.000 364.520 C 380.000 365.838,382.698 365.219,383.401 363.740 C 384.187 362.085,384.159 361.200,383.320 361.200 C 382.791 361.200,382.747 361.307,383.120 361.680 M377.600 364.854 C 377.050 365.076,375.835 365.198,374.900 365.126 C 373.965 365.053,373.200 365.131,373.200 365.297 C 373.200 365.464,374.460 365.600,376.000 365.600 C 378.222 365.600,378.800 365.476,378.800 365.000 C 378.800 364.670,378.755 364.411,378.700 364.425 C 378.645 364.439,378.150 364.632,377.600 364.854 M21.600 365.269 C 21.600 365.451,22.860 365.600,24.400 365.600 C 25.940 365.600,27.200 365.465,27.199 365.300 C 27.198 365.135,25.938 364.986,24.399 364.969 C 22.860 364.953,21.600 365.088,21.600 365.269 " stroke="none" fill="#fce45c" fill-rule="evenodd"></path><path id="path2" d="M23.632 34.943 C 23.611 35.430,23.395 35.607,23.005 35.457 C 22.677 35.332,22.452 35.403,22.505 35.616 C 22.557 35.829,21.885 36.411,21.012 36.908 C 19.421 37.814,17.367 40.319,17.852 40.764 C 17.994 40.894,18.192 40.768,18.293 40.485 C 18.581 39.678,20.429 37.600,20.859 37.600 C 21.073 37.600,21.145 37.765,21.021 37.966 C 20.897 38.167,20.987 38.396,21.221 38.474 C 21.456 38.552,21.187 39.049,20.624 39.578 C 20.061 40.107,19.600 40.317,19.600 40.046 C 19.600 39.775,19.420 39.664,19.200 39.800 C 18.563 40.194,18.735 40.625,19.552 40.686 C 19.966 40.718,20.810 40.216,21.427 39.572 C 22.045 38.927,22.325 38.400,22.051 38.400 C 21.777 38.400,21.666 38.217,21.804 37.993 C 21.942 37.770,22.202 37.678,22.382 37.789 C 22.562 37.900,22.955 37.678,23.255 37.296 C 23.748 36.666,23.733 36.652,23.100 37.149 C 22.715 37.451,22.403 37.541,22.406 37.349 C 22.415 36.841,23.185 35.726,23.200 36.200 C 23.207 36.420,23.380 36.335,23.585 36.011 C 23.902 35.509,23.997 35.527,24.230 36.133 C 24.482 36.791,24.573 36.777,25.451 35.952 C 25.973 35.462,26.400 35.272,26.400 35.530 C 26.400 35.789,26.574 36.000,26.787 36.000 C 27.001 36.000,27.071 35.730,26.945 35.400 C 26.818 35.070,26.567 34.800,26.386 34.800 C 26.205 34.800,25.787 35.070,25.457 35.400 C 24.670 36.187,24.363 36.161,24.681 35.334 C 24.843 34.911,24.778 34.766,24.502 34.937 C 24.264 35.084,23.977 34.979,23.866 34.702 C 23.750 34.415,23.650 34.517,23.632 34.943 M123.500 34.629 C 123.079 35.056,123.124 36.494,123.550 36.231 C 123.742 36.112,124.389 36.469,124.988 37.024 C 125.829 37.803,126.202 37.931,126.621 37.582 C 126.920 37.334,127.353 37.247,127.582 37.389 C 127.812 37.531,128.000 37.541,128.000 37.411 C 128.000 36.864,126.176 36.511,125.600 36.946 C 125.067 37.350,125.067 37.314,125.600 36.625 C 126.154 35.909,126.139 35.873,125.400 36.149 C 124.773 36.383,124.704 36.342,125.083 35.961 C 125.462 35.578,125.701 35.586,126.193 35.994 C 126.537 36.280,126.920 36.413,127.044 36.289 C 127.544 35.789,125.601 35.172,124.828 35.585 C 124.188 35.928,124.034 35.855,123.928 35.161 C 123.857 34.701,123.665 34.461,123.500 34.629 M27.600 35.203 C 27.600 35.472,42.481 35.603,72.200 35.597 C 101.147 35.590,116.800 35.448,116.800 35.193 C 116.800 34.938,101.153 34.800,72.200 34.800 C 42.487 34.800,27.600 34.935,27.600 35.203 M118.800 35.355 C 118.800 35.710,118.991 36.000,119.224 36.000 C 119.457 36.000,119.536 35.820,119.400 35.600 C 119.054 35.040,119.740 35.100,120.320 35.680 C 120.584 35.944,120.800 36.038,120.800 35.890 C 120.800 35.741,121.295 35.806,121.900 36.033 C 122.874 36.399,122.931 36.378,122.400 35.852 C 121.455 34.917,118.800 34.551,118.800 35.355 M18.546 36.967 C 17.916 37.521,17.580 37.974,17.800 37.974 C 18.358 37.973,20.160 36.427,19.903 36.169 C 19.787 36.054,19.177 36.413,18.546 36.967 M126.587 38.021 C 126.440 38.259,126.067 38.358,125.760 38.240 C 124.937 37.924,125.078 38.307,125.958 38.778 C 126.785 39.220,128.024 38.309,127.247 37.829 C 127.032 37.696,126.735 37.782,126.587 38.021 M17.067 39.467 C 16.920 39.613,16.811 40.108,16.825 40.567 C 16.849 41.333,16.882 41.323,17.234 40.442 C 17.626 39.463,17.544 38.989,17.067 39.467 M126.694 39.439 C 126.365 39.768,126.799 40.800,127.266 40.800 C 127.476 40.800,127.536 40.620,127.400 40.400 C 127.264 40.180,127.343 40.000,127.576 40.000 C 127.809 40.000,128.000 39.820,128.000 39.600 C 128.000 39.165,127.081 39.052,126.694 39.439 M134.001 41.300 C 134.001 41.465,134.525 41.600,135.167 41.600 C 135.808 41.600,136.420 41.825,136.526 42.100 C 136.632 42.375,136.701 42.228,136.680 41.773 C 136.642 40.964,134.004 40.498,134.001 41.300 M9.382 41.571 C 9.508 41.775,8.899 42.343,8.028 42.832 C 6.998 43.411,6.111 44.364,5.488 45.561 C 4.880 46.728,4.282 47.379,3.851 47.342 C 3.314 47.296,3.269 47.401,3.635 47.842 C 3.987 48.266,3.984 48.400,3.625 48.400 C 3.365 48.400,3.272 48.594,3.419 48.830 C 3.588 49.104,3.978 48.945,4.492 48.393 C 5.022 47.824,5.623 47.588,6.238 47.705 C 6.754 47.804,7.088 47.742,6.981 47.569 C 6.873 47.395,7.331 47.269,7.998 47.288 C 9.568 47.332,9.611 47.272,9.732 44.868 C 9.788 43.749,9.949 42.718,10.089 42.577 C 10.431 42.236,10.013 41.200,9.534 41.200 C 9.324 41.200,9.256 41.367,9.382 41.571 M137.295 41.575 C 137.517 42.398,138.260 42.542,138.538 41.817 C 138.668 41.478,138.601 41.200,138.387 41.200 C 138.174 41.200,137.997 41.425,137.994 41.700 C 137.990 42.039,137.851 42.007,137.563 41.600 C 137.218 41.112,137.168 41.107,137.295 41.575 M6.141 42.371 C 4.902 43.126,3.751 45.459,4.103 46.503 C 4.195 46.777,4.392 46.354,4.541 45.564 C 4.850 43.928,6.163 42.518,7.848 42.014 C 8.669 41.768,8.770 41.659,8.200 41.636 C 7.760 41.618,6.834 41.948,6.141 42.371 M139.200 43.520 C 139.200 43.696,139.425 44.082,139.700 44.379 C 140.111 44.822,140.057 44.867,139.400 44.635 C 138.790 44.420,138.710 44.464,139.065 44.821 C 139.637 45.398,140.531 44.918,140.250 44.185 C 140.137 43.892,140.260 43.564,140.522 43.457 C 140.785 43.351,140.595 43.249,140.100 43.232 C 139.605 43.214,139.200 43.344,139.200 43.520 M7.537 45.600 C 6.641 46.811,6.112 47.223,6.637 46.300 C 7.010 45.645,8.082 44.400,8.274 44.400 C 8.356 44.400,8.025 44.940,7.537 45.600 M139.886 46.406 C 140.194 47.587,140.591 47.667,140.658 46.562 C 140.691 46.009,140.494 45.600,140.195 45.600 C 139.870 45.600,139.754 45.903,139.886 46.406 M281.272 47.244 C 281.497 47.383,281.405 47.589,281.059 47.722 C 280.725 47.850,280.364 47.740,280.256 47.478 C 280.111 47.123,279.965 47.137,279.686 47.534 C 279.479 47.828,279.151 48.076,278.955 48.085 C 277.831 48.138,274.631 49.564,274.941 49.874 C 275.073 50.006,275.500 49.863,275.890 49.557 C 276.536 49.051,276.550 49.063,276.051 49.700 C 275.401 50.529,275.900 50.602,276.921 49.828 C 277.318 49.527,277.498 49.202,277.321 49.106 C 277.145 49.010,277.219 48.984,277.487 49.048 C 277.755 49.112,278.081 48.993,278.211 48.783 C 278.341 48.572,278.662 48.414,278.924 48.432 C 279.265 48.454,279.257 48.521,278.898 48.666 C 278.621 48.777,278.497 49.033,278.621 49.234 C 278.745 49.435,278.573 49.600,278.238 49.600 C 277.902 49.600,276.947 50.175,276.114 50.878 C 275.281 51.581,274.825 51.905,275.100 51.598 C 275.757 50.865,275.732 50.533,275.021 50.533 C 274.702 50.533,274.218 51.088,273.944 51.767 C 273.316 53.321,272.963 53.556,271.582 53.338 C 270.970 53.242,270.365 53.333,270.237 53.540 C 270.102 53.759,269.419 53.785,268.605 53.601 C 267.651 53.386,267.289 53.420,267.467 53.709 C 267.611 53.942,267.205 54.555,266.565 55.072 C 265.857 55.642,265.562 56.127,265.812 56.306 C 266.038 56.467,266.175 57.050,266.115 57.600 C 266.055 58.150,265.930 60.110,265.836 61.956 C 265.651 65.595,265.319 66.153,263.533 65.827 C 262.843 65.702,262.114 65.910,261.470 66.417 C 260.922 66.847,260.277 67.200,260.037 67.200 C 259.797 67.200,259.600 67.391,259.600 67.624 C 259.600 67.857,259.798 67.925,260.040 67.775 C 260.351 67.583,260.364 67.723,260.086 68.252 C 259.063 70.195,259.799 72.382,261.481 72.394 C 263.707 72.409,267.183 76.753,266.069 78.128 C 265.632 78.668,264.975 81.887,264.586 85.400 C 264.102 89.766,262.149 93.518,260.006 94.198 C 259.185 94.459,258.508 96.576,258.250 99.691 C 257.996 102.750,256.425 105.614,254.366 106.771 C 253.505 107.255,252.800 107.820,252.800 108.026 C 252.800 108.232,252.542 108.400,252.226 108.400 C 251.911 108.400,251.146 109.149,250.526 110.063 C 249.016 112.294,247.885 113.050,244.800 113.891 C 242.343 114.561,236.603 114.600,140.600 114.600 L 39.000 114.600 35.800 113.736 C 29.122 111.934,23.353 111.640,6.900 112.264 L -0.000 112.526 -0.000 232.663 L 0.000 352.800 1.700 352.800 L 3.400 352.801 3.439 355.039 C 3.464 356.488,3.676 357.403,4.039 357.633 C 4.475 357.909,4.422 357.990,3.800 358.000 C 3.158 358.010,3.114 358.085,3.581 358.380 C 3.900 358.582,4.305 358.658,4.481 358.550 C 4.656 358.442,4.800 358.543,4.800 358.776 C 4.800 359.370,5.890 359.307,6.135 358.700 C 6.296 358.300,6.343 358.300,6.368 358.700 C 6.392 359.069,7.595 359.200,10.957 359.200 C 15.483 359.200,15.515 359.207,15.764 360.200 C 15.902 360.750,16.273 361.200,16.587 361.200 C 17.082 361.200,17.083 361.382,16.591 362.560 C 16.052 363.851,16.063 363.909,16.812 363.713 C 17.266 363.594,17.600 363.706,17.600 363.977 C 17.600 364.236,17.432 364.344,17.228 364.217 C 17.023 364.091,16.749 364.159,16.619 364.368 C 16.483 364.589,16.822 364.670,17.424 364.561 C 18.078 364.443,18.369 364.526,18.208 364.786 C 17.877 365.322,18.245 365.311,19.287 364.753 C 19.991 364.377,20.083 364.408,19.873 364.953 C 19.686 365.441,19.868 365.600,20.613 365.600 C 21.156 365.600,21.600 365.451,21.600 365.269 C 21.600 365.088,22.860 364.953,24.399 364.969 C 25.938 364.986,27.198 365.135,27.199 365.300 C 27.200 365.465,105.050 365.600,200.200 365.600 C 295.350 365.600,373.200 365.460,373.200 365.289 C 373.200 365.119,373.917 365.047,374.794 365.131 C 375.670 365.214,376.930 365.094,377.594 364.862 C 378.574 364.521,378.800 364.550,378.800 365.021 C 378.800 365.339,379.143 365.600,379.563 365.600 C 380.148 365.600,380.272 365.398,380.098 364.732 C 379.879 363.892,379.902 363.886,380.825 364.532 C 382.080 365.412,382.693 365.390,381.736 364.500 C 381.322 364.115,381.158 363.935,381.372 364.100 C 381.962 364.556,382.412 364.459,382.300 363.900 C 382.245 363.625,382.425 363.445,382.700 363.500 C 383.301 363.620,383.349 363.140,382.801 362.479 C 382.582 362.214,382.714 362.271,383.094 362.605 C 383.668 363.111,383.701 363.346,383.289 364.006 C 383.016 364.443,382.963 364.800,383.170 364.800 C 383.909 364.800,384.068 363.163,383.424 362.180 C 382.815 361.251,382.824 361.200,383.591 361.200 C 384.043 361.200,384.400 360.936,384.400 360.600 C 384.400 360.270,384.094 360.000,383.720 360.000 C 383.292 360.000,383.181 359.860,383.420 359.622 C 383.629 359.415,386.459 359.207,389.708 359.161 C 393.857 359.101,395.822 358.920,396.308 358.551 C 396.757 358.210,396.819 358.021,396.486 358.013 C 396.102 358.003,396.077 357.804,396.386 357.226 C 396.614 356.801,396.800 355.631,396.800 354.626 L 396.800 352.800 398.400 352.800 L 400.000 352.800 400.000 202.990 L 400.000 53.180 397.795 53.252 C 396.583 53.291,395.548 53.251,395.495 53.162 C 395.443 53.073,395.070 52.350,394.667 51.555 C 393.761 49.770,391.199 48.180,390.409 48.912 C 390.101 49.198,389.986 49.215,390.132 48.953 C 390.580 48.150,389.006 47.133,387.787 47.439 C 387.162 47.596,386.777 47.561,386.902 47.358 C 387.032 47.148,365.196 47.000,334.000 47.000 C 304.782 47.000,281.054 47.110,281.272 47.244 M390.000 47.614 C 390.000 48.159,390.596 48.373,391.153 48.029 C 391.528 47.797,391.442 47.652,390.834 47.493 C 390.375 47.373,390.000 47.427,390.000 47.614 M141.029 48.229 C 140.345 48.912,140.185 49.380,140.755 49.028 C 140.951 48.907,141.585 49.429,142.164 50.188 C 142.888 51.138,143.422 51.490,143.874 51.316 C 144.314 51.147,144.436 51.219,144.242 51.532 C 144.083 51.789,144.133 52.000,144.353 52.000 C 144.574 52.000,144.685 52.357,144.601 52.794 C 144.492 53.359,144.643 53.557,145.124 53.482 C 146.085 53.332,146.800 52.828,146.800 52.300 C 146.800 52.051,146.517 52.196,146.170 52.624 C 145.824 53.051,145.660 53.167,145.805 52.882 C 145.950 52.598,145.828 52.068,145.534 51.706 C 145.212 51.308,145.187 51.159,145.472 51.330 C 145.732 51.486,146.058 51.430,146.196 51.207 C 146.334 50.983,146.145 50.800,145.775 50.800 C 145.193 50.800,145.177 50.708,145.651 50.125 C 146.129 49.537,146.114 49.483,145.529 49.701 C 145.160 49.839,144.668 49.723,144.436 49.443 C 144.126 49.070,144.168 48.933,144.589 48.933 C 144.906 48.933,145.055 49.111,144.921 49.328 C 144.783 49.551,144.880 49.598,145.145 49.434 C 145.402 49.275,145.508 48.974,145.379 48.766 C 145.250 48.557,144.977 48.491,144.772 48.617 C 144.568 48.744,144.400 48.649,144.400 48.408 C 144.400 48.125,144.201 48.152,143.842 48.484 C 143.535 48.768,143.383 49.163,143.504 49.362 C 143.625 49.561,143.507 49.590,143.242 49.426 C 142.890 49.209,142.879 48.987,143.200 48.600 C 143.521 48.213,143.510 47.991,143.158 47.774 C 142.871 47.597,142.781 47.645,142.934 47.893 C 143.075 48.122,142.823 48.405,142.373 48.523 C 141.701 48.699,141.639 48.635,142.026 48.169 C 142.684 47.376,141.830 47.427,141.029 48.229 M274.495 48.266 C 274.218 48.378,273.803 48.859,273.573 49.335 C 273.217 50.073,273.233 50.107,273.678 49.571 C 273.965 49.225,274.560 48.735,275.000 48.483 C 275.797 48.026,275.456 47.880,274.495 48.266 M393.071 48.584 C 393.769 48.888,394.617 49.646,394.955 50.268 C 395.292 50.891,395.575 51.161,395.584 50.869 C 395.608 50.084,393.376 47.998,392.531 48.016 C 392.066 48.026,392.263 48.233,393.071 48.584 M143.417 50.500 C 143.518 50.445,143.600 50.490,143.600 50.600 C 143.600 51.191,143.024 50.875,142.505 50.000 C 141.942 49.050,141.945 49.040,142.573 49.800 C 142.937 50.240,143.317 50.555,143.417 50.500 M0.000 60.000 C 0.000 60.220,0.720 60.400,1.600 60.400 C 2.480 60.400,3.200 60.220,3.200 60.000 C 3.200 59.780,2.480 59.600,1.600 59.600 C 0.720 59.600,0.000 59.780,0.000 60.000 M151.551 60.361 C 151.854 60.553,151.997 60.881,151.869 61.089 C 151.740 61.297,151.897 61.467,152.218 61.467 C 152.999 61.467,152.962 60.548,152.167 60.243 C 151.250 59.891,150.911 59.956,151.551 60.361 M156.806 66.267 C 156.795 67.149,157.286 68.000,157.807 68.000 C 158.375 68.000,158.401 67.042,157.836 66.934 C 157.645 66.898,157.337 66.628,157.151 66.334 C 156.930 65.985,156.810 65.962,156.806 66.267 " stroke="none" fill="#f4cc2c" fill-rule="evenodd"></path><path id="path3" d="M156.200 72.441 C 154.880 72.630,152.810 73.283,151.600 73.892 L 149.400 75.000 94.722 75.200 L 40.044 75.400 38.621 76.779 C 35.807 79.507,35.445 81.257,35.283 92.897 C 35.082 107.381,35.548 109.549,39.262 111.431 L 41.173 112.400 136.524 112.400 C 244.109 112.400,240.701 112.461,243.928 110.478 C 245.178 109.710,246.830 108.763,247.600 108.372 C 251.352 106.471,255.469 100.692,257.411 94.600 C 258.062 92.560,259.113 90.274,259.837 89.325 C 262.991 85.192,263.654 77.055,261.127 73.500 C 260.078 72.023,259.515 72.107,259.782 73.700 C 259.902 74.415,260.087 75.540,260.194 76.200 C 260.699 79.323,259.598 84.538,258.187 85.708 C 256.688 86.951,255.575 89.557,254.416 94.532 C 253.916 96.681,253.431 97.861,252.936 98.133 C 251.533 98.907,249.646 101.079,249.371 102.236 C 248.940 104.052,247.665 105.140,245.134 105.850 C 243.853 106.210,242.399 106.908,241.903 107.402 C 240.389 108.909,240.388 108.909,139.145 109.061 L 40.890 109.208 40.148 107.504 C 38.886 104.608,38.803 85.016,40.042 82.810 L 40.933 81.226 97.366 81.113 L 153.800 81.000 155.800 79.767 C 157.700 78.595,157.822 78.416,158.234 76.167 C 158.472 74.865,158.799 73.395,158.961 72.900 C 159.122 72.405,159.107 72.022,158.927 72.049 C 158.747 72.076,157.520 72.252,156.200 72.441 " stroke="none" fill="#f4ecac" fill-rule="evenodd"></path><path id="path4" d="M25.926 35.404 C 25.393 36.249,26.623 37.297,27.247 36.530 C 27.731 35.936,27.715 35.882,27.125 36.103 C 26.677 36.271,26.405 36.128,26.316 35.678 C 26.241 35.301,26.068 35.180,25.926 35.404 M72.000 35.601 L 27.800 35.802 71.900 36.001 C 101.117 36.133,116.050 36.065,116.149 35.800 C 116.231 35.580,116.227 36.898,116.142 38.728 C 116.037 40.954,116.123 41.971,116.399 41.800 C 116.627 41.660,116.709 41.377,116.583 41.172 C 116.456 40.968,116.541 40.800,116.772 40.800 C 117.002 40.800,117.148 41.115,117.095 41.500 C 117.043 41.885,117.172 42.200,117.383 42.200 C 117.594 42.200,117.815 41.615,117.873 40.900 C 117.977 39.636,117.447 39.095,117.088 40.100 C 116.721 41.128,116.441 40.113,116.779 38.980 C 116.973 38.331,117.147 38.115,117.166 38.500 C 117.185 38.885,117.359 39.200,117.554 39.200 C 117.749 39.200,118.221 39.678,118.604 40.262 C 119.134 41.072,119.164 41.272,118.730 41.105 C 118.309 40.944,118.181 41.186,118.239 42.029 C 118.296 42.846,118.100 43.241,117.553 43.415 C 117.133 43.548,116.892 43.826,117.020 44.032 C 117.148 44.239,117.532 44.125,117.880 43.777 C 118.293 43.364,118.644 43.284,118.903 43.543 C 119.120 43.760,119.575 43.831,119.914 43.701 C 120.291 43.556,120.429 43.630,120.268 43.890 C 119.952 44.402,121.092 44.914,121.704 44.535 C 121.961 44.377,121.773 44.134,121.243 43.938 C 120.733 43.749,120.466 43.416,120.623 43.163 C 120.818 42.847,120.653 42.850,120.048 43.174 C 119.582 43.424,119.200 43.482,119.200 43.303 C 119.200 42.657,120.464 41.192,120.827 41.417 C 121.032 41.544,121.200 41.446,121.200 41.200 C 121.200 40.954,121.380 40.864,121.600 41.000 C 122.317 41.443,122.021 42.099,121.200 41.884 C 120.761 41.769,120.297 41.843,120.171 42.047 C 120.044 42.252,120.089 42.394,120.270 42.363 C 121.037 42.229,121.632 42.425,121.434 42.745 C 121.317 42.935,121.621 43.064,122.110 43.033 C 122.600 43.002,123.149 43.162,123.330 43.388 C 123.531 43.639,123.593 43.565,123.489 43.200 C 123.394 42.870,122.976 42.642,122.559 42.694 C 121.959 42.768,121.996 42.689,122.730 42.319 C 123.665 41.848,124.637 42.493,124.159 43.267 C 123.926 43.643,126.810 42.471,127.500 41.909 C 127.870 41.608,128.000 41.715,128.000 42.318 C 128.000 42.766,127.775 43.224,127.500 43.335 C 127.100 43.496,127.100 43.543,127.500 43.568 C 127.775 43.586,128.000 43.906,128.000 44.280 C 128.000 44.840,128.088 44.866,128.500 44.430 C 128.898 44.009,128.898 43.863,128.503 43.718 C 128.129 43.580,128.115 43.333,128.446 42.714 C 128.783 42.084,128.962 42.015,129.211 42.418 C 129.654 43.135,130.923 43.296,130.656 42.602 C 130.401 41.938,131.471 41.468,131.849 42.079 C 132.027 42.367,131.939 42.410,131.600 42.200 C 131.251 41.984,131.173 42.033,131.366 42.345 C 131.760 42.982,132.400 42.524,132.400 41.604 C 132.400 40.978,132.220 40.907,131.300 41.170 C 129.587 41.659,126.858 41.181,126.750 40.373 C 126.722 40.168,126.678 39.865,126.650 39.700 C 126.623 39.535,126.195 38.995,125.700 38.500 C 125.205 38.005,124.800 37.349,124.800 37.043 C 124.800 36.322,123.815 35.945,123.294 36.466 C 123.022 36.738,122.806 36.733,122.632 36.452 C 122.490 36.223,122.110 36.136,121.787 36.260 C 121.464 36.384,121.200 36.276,121.200 36.019 C 121.200 35.763,121.032 35.656,120.828 35.783 C 120.623 35.909,120.342 35.830,120.204 35.607 C 120.066 35.383,119.773 35.200,119.553 35.200 C 119.333 35.200,119.264 35.380,119.400 35.600 C 119.536 35.820,119.457 36.000,119.224 36.000 C 118.991 36.000,118.800 35.820,118.800 35.600 C 118.800 35.380,118.429 35.200,117.976 35.200 C 117.523 35.200,117.264 35.380,117.400 35.600 C 117.689 36.068,117.132 36.136,116.580 35.700 C 116.371 35.535,96.310 35.490,72.000 35.601 M23.632 36.210 C 22.384 36.895,21.784 37.944,22.329 38.489 C 22.782 38.942,20.546 41.098,19.851 40.877 C 19.639 40.810,19.697 41.035,19.981 41.377 C 20.265 41.720,20.318 42.000,20.098 42.000 C 19.878 42.000,19.474 41.730,19.200 41.400 C 18.491 40.546,17.600 40.658,17.600 41.600 C 17.600 42.040,17.426 42.400,17.213 42.400 C 16.999 42.400,16.924 42.141,17.046 41.825 C 17.214 41.386,16.902 41.248,15.733 41.246 C 14.890 41.244,13.799 41.154,13.308 41.046 C 12.320 40.828,11.721 41.381,12.455 41.834 C 12.772 42.030,12.820 41.941,12.603 41.562 C 12.346 41.111,12.387 41.097,12.815 41.493 C 13.107 41.765,13.225 42.109,13.076 42.258 C 12.927 42.407,12.462 42.218,12.042 41.838 C 11.534 41.379,11.190 41.292,11.012 41.580 C 10.865 41.818,10.532 41.886,10.272 41.730 C 9.748 41.415,10.767 42.829,11.400 43.294 C 11.651 43.478,11.621 43.590,11.320 43.594 C 11.056 43.597,10.656 43.285,10.432 42.900 C 9.940 42.055,9.936 42.066,9.820 44.703 C 9.712 47.171,9.597 47.333,7.998 47.288 C 7.331 47.269,6.865 47.382,6.963 47.540 C 7.060 47.698,6.684 47.821,6.126 47.813 C 5.484 47.805,4.872 48.160,4.456 48.783 C 3.912 49.599,3.902 49.713,4.400 49.453 C 4.739 49.277,4.696 49.390,4.300 49.714 C 3.915 50.030,3.600 50.403,3.600 50.544 C 3.600 50.895,4.542 50.679,4.850 50.257 C 4.988 50.069,5.206 50.087,5.336 50.297 C 5.466 50.507,5.144 50.909,4.620 51.189 C 3.481 51.799,3.047 53.128,3.717 53.956 C 4.103 54.434,4.094 54.490,3.669 54.234 C 3.253 53.984,3.193 54.205,3.391 55.257 C 4.155 59.325,3.760 60.400,1.504 60.400 C 0.234 60.400,-0.000 60.533,-0.000 61.256 C -0.000 62.056,0.146 62.097,2.242 61.881 C 3.475 61.753,4.360 61.773,4.209 61.925 C 3.891 62.242,3.779 62.263,1.500 62.410 L -0.200 62.520 1.600 62.800 L 3.400 63.080 1.700 63.140 C -0.358 63.213,-0.597 64.000,1.440 64.000 C 3.280 64.000,5.686 61.808,4.321 61.375 C 3.838 61.222,3.629 60.901,3.771 60.531 C 3.897 60.203,4.000 59.759,4.000 59.544 C 4.000 59.329,4.192 59.272,4.427 59.417 C 4.662 59.562,4.756 59.937,4.636 60.250 C 4.461 60.705,4.577 60.733,5.220 60.389 C 5.661 60.153,5.915 59.786,5.784 59.573 C 5.652 59.361,5.422 59.261,5.272 59.351 C 5.123 59.442,4.768 59.265,4.484 58.958 C 3.994 58.428,4.809 58.133,6.130 58.363 C 6.311 58.394,6.362 58.262,6.243 58.069 C 6.124 57.877,6.761 57.499,7.659 57.229 C 9.249 56.753,9.270 56.724,8.446 56.147 C 7.980 55.821,7.455 55.642,7.280 55.750 C 6.611 56.164,5.823 55.295,6.322 54.694 C 6.581 54.382,6.660 53.979,6.497 53.799 C 6.333 53.619,6.428 53.603,6.707 53.764 C 6.985 53.924,7.117 54.210,7.000 54.400 C 6.883 54.590,6.998 54.875,7.255 55.034 C 7.548 55.215,7.616 55.150,7.438 54.862 C 7.281 54.608,7.365 54.400,7.625 54.400 C 7.965 54.400,7.978 54.255,7.672 53.887 C 7.433 53.599,7.390 53.140,7.573 52.844 C 7.802 52.473,7.982 52.447,8.174 52.757 C 8.324 53.001,8.235 53.200,7.975 53.200 C 7.625 53.200,7.618 53.339,7.948 53.737 C 8.193 54.032,8.275 54.392,8.130 54.537 C 7.985 54.682,8.077 54.800,8.333 54.800 C 8.590 54.800,8.804 54.665,8.809 54.500 C 8.814 54.335,9.186 53.750,9.636 53.200 C 10.419 52.243,10.434 52.240,9.996 53.131 C 9.499 54.143,9.713 55.200,10.414 55.200 C 10.661 55.200,10.750 54.873,10.618 54.456 C 10.482 54.029,10.639 53.500,10.987 53.211 C 11.319 52.935,11.500 52.562,11.389 52.382 C 11.278 52.202,11.390 51.930,11.638 51.776 C 11.886 51.623,12.219 51.707,12.377 51.962 C 12.542 52.230,12.978 52.307,13.403 52.144 C 14.112 51.871,14.111 51.849,13.371 51.576 C 12.690 51.325,12.728 51.258,13.700 51.002 C 14.305 50.843,14.800 50.542,14.800 50.333 C 14.800 50.124,14.622 50.063,14.405 50.197 C 14.178 50.337,14.111 50.177,14.247 49.821 C 14.399 49.424,14.262 49.200,13.866 49.200 C 13.526 49.200,13.164 49.065,13.062 48.900 C 12.960 48.735,13.382 48.600,14.000 48.600 C 14.618 48.600,15.029 48.752,14.914 48.938 C 14.799 49.125,15.042 49.212,15.453 49.133 C 16.299 48.970,16.578 47.333,15.760 47.333 C 15.471 47.333,15.328 47.483,15.441 47.667 C 15.555 47.850,15.217 48.000,14.690 48.000 C 13.709 48.000,13.313 46.866,14.112 46.345 C 14.327 46.204,14.373 45.881,14.216 45.625 C 14.015 45.301,13.778 45.286,13.428 45.577 C 12.785 46.111,12.383 45.714,12.702 44.861 C 12.908 44.312,12.846 44.284,12.342 44.694 C 11.850 45.092,11.733 45.077,11.733 44.611 C 11.733 44.294,11.883 44.128,12.067 44.241 C 12.250 44.355,12.400 44.237,12.400 43.981 C 12.400 43.724,12.670 43.618,13.000 43.745 C 13.389 43.894,13.602 43.733,13.606 43.287 C 13.611 42.714,13.673 42.697,13.980 43.181 C 14.440 43.908,14.095 44.522,13.380 44.248 C 13.028 44.113,12.920 44.248,13.070 44.638 C 13.196 44.966,13.395 45.138,13.513 45.021 C 13.630 44.903,13.994 45.029,14.321 45.300 C 14.821 45.716,14.875 45.665,14.658 44.983 C 14.462 44.364,14.579 44.171,15.153 44.171 C 15.863 44.171,15.869 44.228,15.254 45.166 C 14.638 46.107,14.643 46.146,15.334 45.881 C 15.736 45.726,16.276 45.597,16.533 45.594 C 16.879 45.589,16.876 45.509,16.521 45.283 C 16.226 45.096,16.174 44.766,16.385 44.425 C 16.670 43.963,16.838 43.981,17.392 44.535 C 18.284 45.427,18.521 45.374,18.000 44.400 C 17.665 43.775,17.696 43.600,18.139 43.600 C 18.451 43.600,18.806 43.222,18.926 42.760 C 19.047 42.298,19.322 42.028,19.537 42.161 C 20.033 42.468,21.257 42.016,21.011 41.617 C 20.909 41.452,21.090 40.976,21.414 40.559 C 21.919 39.907,21.968 39.899,21.758 40.500 C 21.618 40.901,21.710 41.200,21.973 41.200 C 22.225 41.200,22.067 41.590,21.623 42.068 C 20.885 42.859,21.199 44.534,21.945 43.788 C 22.073 43.661,21.912 43.389,21.588 43.184 C 21.049 42.843,21.330 42.624,22.130 42.763 C 22.311 42.794,22.328 42.608,22.168 42.348 C 21.973 42.032,22.050 41.983,22.401 42.200 C 22.807 42.452,22.869 42.245,22.676 41.278 C 22.538 40.592,22.555 39.951,22.713 39.854 C 22.871 39.757,23.049 40.380,23.110 41.239 C 23.171 42.109,23.038 42.800,22.810 42.800 C 22.584 42.800,22.400 42.980,22.400 43.200 C 22.400 43.420,22.655 43.600,22.967 43.600 C 23.278 43.600,23.597 43.790,23.674 44.023 C 23.754 44.263,24.139 44.322,24.564 44.159 C 25.263 43.890,25.268 43.839,24.629 43.372 C 24.254 43.098,23.959 42.766,23.973 42.636 C 23.988 42.506,23.987 42.355,23.970 42.300 C 23.804 41.742,23.700 40.317,23.851 40.678 C 23.961 40.940,24.292 41.063,24.585 40.950 C 25.313 40.671,25.770 41.514,25.238 42.154 C 24.783 42.702,25.039 43.204,25.767 43.194 C 26.005 43.191,25.930 43.013,25.600 42.800 C 25.071 42.458,25.074 42.412,25.620 42.406 C 25.961 42.403,26.456 42.616,26.720 42.880 C 27.093 43.253,27.200 43.209,27.200 42.680 C 27.200 42.306,26.930 42.000,26.600 42.000 C 26.270 42.000,26.000 41.826,26.000 41.613 C 26.000 41.399,26.315 41.326,26.700 41.450 C 27.271 41.634,27.293 41.599,26.819 41.264 C 26.500 41.038,26.095 40.942,25.919 41.050 C 25.744 41.158,25.600 40.973,25.600 40.638 C 25.600 40.302,25.948 39.842,26.374 39.614 C 27.328 39.103,27.719 39.084,27.423 39.563 C 27.299 39.763,27.367 40.348,27.574 40.863 C 27.850 41.553,27.956 41.616,27.975 41.102 C 27.999 40.443,30.441 40.398,71.700 40.298 L 115.400 40.193 71.532 40.197 C 29.999 40.200,27.668 40.163,27.717 39.500 C 27.767 38.838,30.159 38.800,71.918 38.800 C 107.059 38.800,116.033 38.698,115.900 38.300 C 115.685 37.654,28.000 37.353,28.000 37.998 C 28.000 38.219,27.696 38.400,27.324 38.400 C 26.735 38.400,26.748 38.326,27.423 37.833 C 27.850 37.521,28.068 37.135,27.909 36.976 C 27.750 36.816,27.375 36.889,27.077 37.136 C 26.670 37.474,26.343 37.447,25.768 37.026 C 25.228 36.631,24.855 36.589,24.501 36.882 C 23.784 37.478,23.881 36.976,24.629 36.229 C 25.375 35.482,24.972 35.474,23.632 36.210 M23.316 37.600 C 23.115 38.367,22.400 38.742,22.400 38.080 C 22.400 37.801,23.216 36.800,23.443 36.800 C 23.488 36.800,23.431 37.160,23.316 37.600 M24.697 38.050 C 24.314 38.264,24.000 38.711,24.000 39.043 C 24.000 39.376,23.811 39.531,23.581 39.388 C 23.290 39.208,23.289 38.975,23.577 38.628 C 23.806 38.352,23.860 37.979,23.697 37.799 C 23.533 37.619,23.613 37.594,23.872 37.742 C 24.132 37.891,24.465 37.818,24.612 37.580 C 24.760 37.342,24.996 37.262,25.137 37.403 C 25.278 37.545,25.080 37.835,24.697 38.050 M26.582 38.771 C 26.708 38.975,26.449 39.257,26.006 39.398 C 25.563 39.539,25.200 39.832,25.200 40.051 C 25.200 40.269,25.020 40.336,24.800 40.200 C 24.230 39.848,24.304 39.181,24.900 39.300 C 25.175 39.355,25.355 39.175,25.300 38.900 C 25.185 38.323,26.240 38.217,26.582 38.771 M120.800 40.409 C 120.800 40.780,119.272 40.440,119.006 40.010 C 118.906 39.848,119.269 39.801,119.812 39.904 C 120.355 40.008,120.800 40.235,120.800 40.409 M125.595 40.791 C 125.933 41.422,125.903 41.538,125.450 41.364 C 125.137 41.244,124.762 41.338,124.617 41.573 C 124.456 41.833,124.752 42.000,125.376 42.000 C 125.939 42.000,126.400 41.820,126.400 41.600 C 126.400 41.380,126.591 41.200,126.824 41.200 C 127.531 41.200,126.788 42.024,125.712 42.434 C 124.705 42.816,123.637 42.085,123.619 41.000 C 123.615 40.780,123.787 40.870,124.000 41.200 C 124.213 41.530,124.413 41.665,124.444 41.500 C 124.475 41.335,124.545 41.020,124.600 40.800 C 124.655 40.580,124.722 40.310,124.750 40.200 C 124.852 39.791,125.184 40.023,125.595 40.791 M132.862 42.800 C 132.941 44.145,133.600 45.216,133.600 44.000 C 133.600 43.780,133.870 43.600,134.200 43.600 C 134.915 43.600,135.004 44.265,134.320 44.493 C 133.946 44.618,133.946 44.719,134.320 44.950 C 134.584 45.114,134.800 45.046,134.800 44.800 C 134.800 44.554,135.011 44.483,135.268 44.642 C 135.585 44.838,135.651 44.711,135.473 44.245 C 135.316 43.837,135.370 43.658,135.605 43.803 C 136.336 44.255,136.887 43.552,136.197 43.047 C 135.610 42.618,135.621 42.571,136.306 42.571 C 136.725 42.571,137.095 42.758,137.130 42.986 C 137.164 43.214,137.258 43.850,137.338 44.400 C 137.432 45.044,137.723 45.379,138.156 45.342 C 138.671 45.298,138.725 45.408,138.387 45.815 C 138.027 46.249,137.805 46.205,137.173 45.573 C 136.350 44.750,136.135 44.189,136.800 44.600 C 137.020 44.736,137.200 44.657,137.200 44.424 C 137.200 43.603,136.376 44.012,135.991 45.024 C 135.754 45.647,135.420 45.936,135.139 45.762 C 134.852 45.585,134.785 45.652,134.962 45.938 C 135.493 46.798,134.450 46.407,133.823 45.511 C 133.350 44.836,133.200 44.777,133.200 45.268 C 133.200 46.026,132.253 46.493,131.745 45.985 C 131.543 45.783,131.140 45.803,130.797 46.033 C 130.310 46.359,130.348 46.412,131.000 46.317 C 131.594 46.230,131.766 46.395,131.669 46.960 C 131.547 47.666,131.584 47.673,132.197 47.060 C 132.940 46.317,133.830 46.201,134.200 46.800 C 134.336 47.020,134.257 47.200,134.024 47.200 C 133.791 47.200,133.600 47.391,133.600 47.624 C 133.600 47.857,133.740 47.960,133.912 47.854 C 134.301 47.614,134.251 49.270,133.849 49.920 C 133.686 50.184,133.347 50.400,133.096 50.400 C 132.768 50.400,132.774 50.266,133.120 49.920 C 133.776 49.264,133.730 48.594,133.067 49.145 C 132.663 49.480,132.533 49.443,132.533 48.994 C 132.533 48.667,132.768 48.400,133.054 48.400 C 133.341 48.400,133.477 48.144,133.357 47.831 C 133.174 47.356,133.021 47.372,132.432 47.931 C 131.966 48.372,131.836 48.820,132.049 49.247 C 132.227 49.603,132.258 50.008,132.119 50.147 C 131.980 50.286,132.077 50.400,132.333 50.400 C 132.590 50.400,132.800 50.940,132.800 51.600 C 132.800 52.260,132.964 52.800,133.165 52.800 C 133.365 52.800,133.480 52.351,133.420 51.803 C 133.308 50.782,134.151 49.673,134.549 50.317 C 134.670 50.513,135.308 50.641,135.968 50.602 C 136.744 50.556,137.070 50.684,136.894 50.965 C 136.503 51.588,136.539 52.556,136.964 52.863 C 137.575 53.305,138.362 52.774,138.145 52.067 C 137.977 51.523,138.025 51.533,138.401 52.121 C 138.758 52.677,138.742 52.989,138.332 53.486 C 137.914 53.993,137.907 54.166,138.300 54.298 C 139.129 54.577,138.898 56.000,138.024 56.000 C 137.081 56.000,136.609 56.635,137.255 57.034 C 137.548 57.215,137.616 57.150,137.438 56.862 C 137.258 56.570,137.456 56.400,137.976 56.400 C 138.429 56.400,138.800 56.580,138.800 56.800 C 138.800 57.020,138.590 57.200,138.333 57.200 C 138.077 57.200,138.001 57.335,138.166 57.499 C 138.699 58.033,139.596 56.324,139.333 55.276 C 139.157 54.576,139.221 54.366,139.548 54.568 C 139.804 54.726,139.909 55.023,139.783 55.228 C 139.656 55.432,139.754 55.600,140.000 55.600 C 140.246 55.600,140.344 55.768,140.217 55.972 C 140.091 56.177,140.174 56.461,140.403 56.602 C 140.632 56.744,140.770 56.621,140.710 56.330 C 140.649 56.038,140.838 55.849,141.130 55.910 C 141.421 55.970,141.544 55.832,141.402 55.603 C 141.261 55.374,140.977 55.291,140.772 55.417 C 140.568 55.544,140.400 55.478,140.400 55.270 C 140.400 54.654,141.785 54.480,142.300 55.031 C 142.669 55.426,142.666 55.586,142.288 55.740 C 141.926 55.888,141.950 56.043,142.378 56.342 C 142.731 56.587,143.218 56.605,143.626 56.386 C 143.994 56.189,144.371 56.067,144.463 56.114 C 144.556 56.161,144.198 55.816,143.667 55.346 C 143.137 54.877,142.800 54.247,142.920 53.946 C 143.061 53.590,143.148 53.667,143.168 54.167 C 143.186 54.588,143.317 54.816,143.460 54.673 C 143.604 54.530,143.933 54.703,144.193 55.058 C 144.580 55.587,144.659 55.369,144.633 53.852 C 144.615 52.834,144.454 52.000,144.276 52.000 C 144.098 52.000,144.020 51.865,144.102 51.700 C 144.184 51.535,143.808 50.974,143.265 50.452 C 142.626 49.839,142.366 49.733,142.526 50.152 C 142.663 50.509,142.579 50.800,142.338 50.800 C 142.066 50.800,142.108 51.063,142.451 51.500 C 142.948 52.133,142.934 52.148,142.304 51.655 C 141.922 51.355,141.705 50.953,141.823 50.763 C 142.135 50.258,141.228 48.736,140.780 49.012 C 140.571 49.142,140.400 49.046,140.400 48.800 C 140.400 48.554,140.232 48.456,140.028 48.583 C 139.823 48.709,139.525 48.602,139.366 48.345 C 139.185 48.052,139.250 47.984,139.538 48.162 C 139.797 48.322,140.003 48.217,140.006 47.924 C 140.011 47.543,140.118 47.564,140.400 48.000 C 140.613 48.330,140.791 48.411,140.794 48.180 C 140.797 47.949,140.586 47.546,140.324 47.284 C 140.062 47.022,139.792 46.536,139.724 46.204 C 139.441 44.825,139.363 44.577,139.065 44.100 C 138.893 43.825,138.866 43.600,139.005 43.600 C 139.626 43.600,137.964 42.386,137.131 42.232 C 136.619 42.137,136.200 42.032,136.200 41.999 C 136.200 41.966,135.871 41.876,135.469 41.800 C 134.960 41.704,134.807 41.841,134.964 42.252 C 135.089 42.576,135.025 42.739,134.823 42.614 C 134.621 42.489,134.340 42.573,134.200 42.800 C 134.060 43.027,133.774 43.108,133.566 42.979 C 133.357 42.850,133.292 42.574,133.421 42.366 C 133.550 42.157,133.823 42.091,134.028 42.217 C 134.232 42.344,134.400 42.276,134.400 42.066 C 134.400 41.737,133.501 41.200,132.951 41.200 C 132.850 41.200,132.810 41.920,132.862 42.800 M16.293 42.190 C 16.462 42.376,16.375 42.399,16.100 42.241 C 15.825 42.082,15.600 42.154,15.600 42.400 C 15.600 42.646,15.392 42.719,15.138 42.562 C 14.867 42.394,14.784 42.451,14.938 42.700 C 15.088 42.942,15.929 43.044,16.900 42.937 C 18.276 42.786,18.464 42.837,17.885 43.203 C 17.492 43.453,16.952 43.578,16.685 43.482 C 16.418 43.387,15.891 43.467,15.514 43.661 C 14.980 43.935,14.697 43.761,14.241 42.878 C 13.645 41.726,15.351 41.154,16.293 42.190 M49.900 42.700 C 62.055 42.759,81.945 42.759,94.100 42.700 C 106.255 42.641,96.310 42.593,72.000 42.593 C 47.690 42.593,37.745 42.641,49.900 42.700 M125.114 43.624 C 124.477 43.996,124.475 44.078,125.086 44.791 C 125.757 45.575,126.634 45.503,126.141 44.704 C 125.967 44.423,126.104 44.354,126.522 44.515 C 126.881 44.652,127.273 44.606,127.393 44.411 C 127.514 44.216,127.053 44.128,126.369 44.214 C 125.314 44.348,125.200 44.282,125.612 43.786 C 126.176 43.106,126.065 43.070,125.114 43.624 M23.700 45.212 C 23.205 45.411,22.800 45.764,22.800 45.996 C 22.800 46.230,23.246 46.126,23.800 45.763 C 24.350 45.403,24.800 45.039,24.800 44.954 C 24.800 44.767,24.817 44.763,23.700 45.212 M27.318 45.379 C 26.937 45.812,26.959 45.975,27.418 46.151 C 27.806 46.300,28.000 46.112,28.000 45.587 C 28.000 44.666,27.956 44.653,27.318 45.379 M116.600 45.200 C 116.736 45.420,116.657 45.600,116.424 45.600 C 116.191 45.600,116.000 45.870,116.000 46.200 C 116.000 46.533,116.356 46.800,116.800 46.800 C 117.240 46.800,117.600 46.631,117.600 46.424 C 117.600 46.217,118.275 45.978,119.100 45.891 L 120.600 45.734 118.900 45.667 C 117.965 45.630,117.200 45.420,117.200 45.200 C 117.200 44.980,117.009 44.800,116.776 44.800 C 116.543 44.800,116.464 44.980,116.600 45.200 M10.800 45.624 C 10.800 45.857,10.980 45.936,11.200 45.800 C 11.420 45.664,11.600 45.743,11.600 45.976 C 11.600 46.588,10.978 46.497,10.400 45.800 C 10.056 45.385,10.041 45.200,10.351 45.200 C 10.598 45.200,10.800 45.391,10.800 45.624 M137.055 46.200 C 137.182 46.530,137.517 46.800,137.800 46.800 C 138.083 46.800,138.418 47.070,138.545 47.400 C 138.671 47.730,138.601 48.000,138.387 48.000 C 138.174 48.000,138.000 48.191,138.000 48.424 C 138.000 48.657,138.180 48.736,138.400 48.600 C 138.620 48.464,138.800 48.644,138.800 49.000 C 138.800 49.411,138.618 49.538,138.300 49.347 C 137.929 49.124,137.935 49.213,138.322 49.691 C 138.769 50.242,138.740 50.316,138.122 50.198 C 137.725 50.123,137.175 50.047,136.900 50.031 C 136.625 50.014,136.400 49.826,136.400 49.613 C 136.400 49.399,136.715 49.343,137.100 49.487 C 137.735 49.725,137.744 49.680,137.200 48.998 C 136.870 48.585,136.806 48.370,137.058 48.521 C 137.310 48.672,137.619 48.526,137.746 48.198 C 137.887 47.828,137.742 47.600,137.364 47.600 C 137.028 47.600,136.856 47.432,136.983 47.228 C 137.109 47.023,137.030 46.742,136.807 46.604 C 136.568 46.457,136.397 46.818,136.394 47.476 C 136.389 48.282,136.288 48.442,136.034 48.042 C 135.750 47.594,135.643 47.633,135.487 48.242 C 135.362 48.731,135.276 48.566,135.246 47.780 C 135.179 46.020,136.533 44.838,137.055 46.200 M16.933 47.820 C 16.933 48.097,17.218 48.236,17.567 48.129 C 18.052 47.980,18.029 48.075,17.467 48.536 C 16.757 49.117,16.758 49.149,17.488 49.540 C 18.090 49.862,18.349 49.767,18.768 49.072 C 19.203 48.351,19.203 48.286,18.767 48.700 C 17.901 49.521,17.417 49.265,18.200 48.400 C 18.598 47.960,18.851 47.577,18.762 47.549 C 17.885 47.273,16.933 47.414,16.933 47.820 M135.433 49.200 C 135.745 49.200,136.000 49.380,136.000 49.600 C 136.000 49.820,135.730 50.000,135.400 50.000 C 135.070 50.000,134.800 49.925,134.800 49.833 C 134.800 49.741,134.740 49.426,134.666 49.133 C 134.592 48.840,134.607 48.735,134.699 48.900 C 134.791 49.065,135.122 49.200,135.433 49.200 M15.600 50.200 C 16.157 50.871,17.200 51.010,17.200 50.413 C 17.200 50.199,16.930 50.129,16.600 50.255 C 16.270 50.382,16.000 50.286,16.000 50.043 C 16.000 49.799,15.798 49.600,15.551 49.600 C 15.241 49.600,15.256 49.785,15.600 50.200 M7.600 50.167 C 7.600 50.259,7.714 50.664,7.854 51.067 C 8.079 51.718,8.031 51.711,7.424 51.000 C 7.048 50.560,6.855 50.425,6.994 50.700 C 7.133 50.975,7.057 51.200,6.824 51.200 C 6.591 51.200,6.400 50.930,6.400 50.600 C 6.400 50.270,6.670 50.000,7.000 50.000 C 7.330 50.000,7.600 50.075,7.600 50.167 M13.400 50.400 C 13.264 50.620,12.904 50.800,12.600 50.800 C 12.296 50.800,11.936 50.620,11.800 50.400 C 11.659 50.172,12.004 50.000,12.600 50.000 C 13.196 50.000,13.541 50.172,13.400 50.400 M139.600 51.867 C 139.600 53.070,139.259 52.947,139.010 51.654 C 138.920 51.184,139.016 50.800,139.223 50.800 C 139.430 50.800,139.600 51.280,139.600 51.867 M134.267 51.467 C 133.781 51.953,133.990 52.400,134.700 52.394 C 135.304 52.389,135.318 52.330,134.800 51.963 C 134.267 51.586,134.267 51.557,134.800 51.703 C 135.995 52.028,135.799 53.337,134.600 53.036 C 133.808 52.837,133.570 52.903,133.704 53.283 C 133.804 53.567,134.182 53.775,134.543 53.744 C 134.904 53.714,135.200 53.849,135.200 54.044 C 135.200 54.626,134.319 54.450,133.473 53.700 C 132.707 53.021,132.698 53.027,133.159 53.905 C 133.809 55.145,135.994 55.071,135.672 53.819 C 135.486 53.097,135.540 53.065,136.126 53.545 C 136.492 53.845,136.693 54.250,136.572 54.445 C 136.451 54.640,136.644 54.800,137.000 54.800 C 137.356 54.800,137.555 54.950,137.441 55.133 C 137.328 55.317,137.494 55.467,137.811 55.467 C 138.243 55.467,138.278 55.334,137.949 54.938 C 137.708 54.648,137.625 54.112,137.764 53.749 C 137.967 53.220,137.907 53.180,137.462 53.548 C 136.790 54.106,135.990 53.333,135.892 52.032 C 135.832 51.235,134.842 50.891,134.267 51.467 M142.400 52.814 C 142.400 53.469,141.819 53.242,141.278 52.376 C 140.803 51.615,140.826 51.586,141.582 51.990 C 142.032 52.231,142.400 52.602,142.400 52.814 M11.378 53.224 C 10.647 54.032,10.999 54.773,12.124 54.794 C 12.302 54.797,12.316 55.025,12.155 55.300 C 11.994 55.575,12.223 55.485,12.663 55.100 C 13.103 54.715,13.661 54.400,13.902 54.400 C 14.144 54.400,14.407 54.715,14.487 55.100 C 14.612 55.704,14.663 55.688,14.857 54.982 C 15.102 54.093,13.305 53.583,12.801 54.398 C 12.645 54.651,12.264 54.582,11.776 54.213 C 11.074 53.681,11.067 53.624,11.700 53.613 C 12.085 53.606,12.400 53.330,12.400 53.000 C 12.400 52.212,12.268 52.241,11.378 53.224 M145.110 53.481 C 145.021 53.656,144.982 54.025,145.024 54.300 C 145.066 54.575,145.123 55.160,145.150 55.600 C 145.220 56.722,146.402 56.627,146.394 55.500 C 146.389 54.772,146.314 54.715,146.000 55.200 C 145.787 55.530,145.609 55.611,145.606 55.380 C 145.603 55.149,145.788 54.772,146.017 54.543 C 146.306 54.254,146.256 53.978,145.853 53.644 C 145.533 53.378,145.199 53.305,145.110 53.481 M5.805 55.300 C 6.022 55.795,6.470 56.224,6.800 56.254 C 8.501 56.407,8.592 56.454,7.800 56.770 C 6.088 57.454,5.003 57.033,4.960 55.667 C 4.913 54.181,5.250 54.035,5.805 55.300 M134.800 55.690 C 134.800 55.887,134.592 55.919,134.338 55.762 C 134.050 55.584,133.985 55.652,134.166 55.945 C 134.325 56.202,134.653 56.291,134.896 56.141 C 135.176 55.968,135.246 56.103,135.088 56.514 C 134.929 56.930,135.016 57.092,135.335 56.970 C 135.989 56.719,135.972 55.333,135.314 55.333 C 135.031 55.333,134.800 55.494,134.800 55.690 M10.360 56.100 C 10.034 56.922,10.210 58.324,10.599 58.001 C 10.860 57.784,11.235 57.740,11.433 57.903 C 11.630 58.067,11.478 57.825,11.095 57.368 C 10.712 56.910,10.519 56.415,10.666 56.268 C 10.813 56.120,10.813 56.000,10.667 56.000 C 10.520 56.000,10.382 56.045,10.360 56.100 M143.900 57.076 C 142.937 57.327,143.015 57.964,144.000 57.890 C 144.440 57.857,144.800 57.688,144.800 57.515 C 144.800 57.342,144.991 57.200,145.224 57.200 C 145.457 57.200,145.519 57.408,145.362 57.662 C 145.172 57.969,145.254 58.014,145.606 57.796 C 145.987 57.561,146.067 57.650,145.888 58.114 C 145.712 58.573,145.813 58.693,146.238 58.530 C 146.753 58.332,146.742 58.199,146.155 57.551 C 145.473 56.797,145.193 56.738,143.900 57.076 M5.748 57.685 C 5.473 58.129,4.495 58.077,4.202 57.603 C 4.060 57.374,4.377 57.240,4.949 57.288 C 5.495 57.333,5.855 57.512,5.748 57.685 M144.572 59.245 C 144.191 59.862,145.295 60.487,145.691 59.879 C 145.876 59.594,145.961 59.799,145.901 60.384 C 145.833 61.051,146.025 61.414,146.500 61.513 C 146.923 61.601,147.200 61.419,147.200 61.053 C 147.200 60.720,147.378 60.337,147.595 60.203 C 148.174 59.845,149.107 60.868,148.905 61.641 C 148.727 62.322,150.358 64.176,150.771 63.761 C 150.897 63.635,150.628 63.230,150.174 62.861 C 149.657 62.442,149.358 61.745,149.374 60.996 C 149.398 59.896,149.295 59.805,148.100 59.859 C 147.211 59.899,146.800 59.737,146.800 59.345 C 146.800 58.902,146.624 58.866,146.026 59.186 C 145.050 59.708,144.683 59.713,145.000 59.200 C 145.136 58.980,145.157 58.800,145.047 58.800 C 144.937 58.800,144.724 59.000,144.572 59.245 M150.033 60.900 C 149.655 61.897,150.150 62.800,151.073 62.800 C 151.389 62.800,151.537 62.978,151.403 63.195 C 151.260 63.427,151.430 63.486,151.813 63.340 C 152.173 63.202,152.317 62.979,152.134 62.844 C 151.950 62.710,151.782 62.375,151.760 62.100 C 151.662 60.870,151.562 60.729,150.955 60.962 C 150.494 61.139,150.377 61.037,150.543 60.605 C 150.671 60.272,150.685 60.000,150.575 60.000 C 150.464 60.000,150.221 60.405,150.033 60.900 M12.800 61.780 C 12.800 62.099,12.485 62.560,12.100 62.803 C 11.708 63.052,11.649 63.183,11.966 63.101 C 12.707 62.911,13.861 61.200,13.249 61.200 C 13.002 61.200,12.800 61.461,12.800 61.780 M148.324 63.661 C 148.727 64.184,148.729 64.357,148.337 64.488 C 148.005 64.598,148.062 64.738,148.507 64.909 C 149.554 65.311,149.673 64.585,148.697 63.753 C 148.068 63.217,147.961 63.190,148.324 63.661 M0.033 64.545 C 0.125 64.624,1.550 64.788,3.200 64.909 C 4.973 65.038,5.873 64.990,5.400 64.792 C 4.637 64.472,-0.314 64.243,0.033 64.545 M151.332 65.900 C 151.308 66.505,151.372 66.685,151.474 66.300 C 151.576 65.915,151.836 65.600,152.053 65.600 C 152.270 65.600,152.336 65.780,152.200 66.000 C 152.064 66.220,152.154 66.400,152.400 66.400 C 152.646 66.400,152.746 66.564,152.622 66.765 C 152.498 66.966,152.847 67.080,153.398 67.020 C 153.949 66.960,154.400 67.065,154.400 67.255 C 154.400 67.445,154.602 67.600,154.849 67.600 C 155.153 67.600,155.133 67.401,154.785 66.982 C 154.503 66.642,154.044 66.451,153.766 66.558 C 153.488 66.664,152.973 66.313,152.621 65.776 C 151.787 64.503,151.385 64.541,151.332 65.900 M6.059 65.881 C 5.726 66.475,5.583 66.491,4.939 66.000 C 4.341 65.546,4.294 65.544,4.690 65.990 C 5.050 66.393,5.063 66.683,4.742 67.070 C 4.421 67.456,4.424 67.600,4.751 67.600 C 4.998 67.600,5.200 67.409,5.200 67.176 C 5.200 66.943,5.383 66.866,5.607 67.004 C 5.830 67.142,5.892 67.451,5.745 67.689 C 5.583 67.951,5.663 68.008,5.945 67.834 C 6.202 67.675,6.312 67.381,6.188 67.181 C 6.064 66.980,6.158 66.453,6.396 66.008 C 6.918 65.033,6.600 64.913,6.059 65.881 M6.960 66.957 C 6.960 67.577,7.143 67.843,7.480 67.714 C 8.078 67.484,8.081 67.476,7.757 66.633 C 7.396 65.691,6.960 65.868,6.960 66.957 M149.477 66.656 C 149.656 67.122,149.586 67.239,149.252 67.032 C 148.896 66.812,148.839 67.033,149.036 67.866 C 149.431 69.541,149.806 69.745,149.803 68.283 C 149.801 67.469,149.983 67.037,150.300 67.100 C 151.055 67.251,150.900 66.882,150.009 66.405 C 149.344 66.049,149.259 66.089,149.477 66.656 M155.399 67.427 C 155.076 67.938,154.787 67.976,153.877 67.630 C 153.001 67.297,152.816 67.312,153.036 67.701 C 153.260 68.098,153.207 68.097,152.779 67.700 C 152.078 67.050,151.736 67.069,151.467 67.771 C 151.346 68.085,151.541 68.580,151.901 68.871 C 152.443 69.310,152.499 69.310,152.234 68.868 C 151.981 68.449,152.232 68.387,153.418 68.576 C 155.082 68.840,156.258 69.962,155.466 70.528 C 155.151 70.753,155.194 70.806,155.600 70.690 C 155.930 70.596,156.186 70.132,156.168 69.660 C 156.151 69.187,156.308 68.800,156.518 68.800 C 156.732 68.800,156.790 69.348,156.650 70.049 C 156.433 71.135,156.480 71.232,157.009 70.792 C 157.520 70.369,157.577 70.395,157.362 70.955 C 157.187 71.410,156.849 71.543,156.303 71.369 C 155.769 71.200,155.592 71.263,155.774 71.557 C 155.924 71.801,156.651 72.000,157.388 72.000 C 158.807 72.000,158.930 71.669,158.081 70.126 C 157.476 69.027,157.470 68.672,158.062 69.038 C 158.348 69.215,158.415 69.148,158.238 68.862 C 158.081 68.608,157.603 68.400,157.176 68.400 C 156.413 68.400,156.111 67.828,156.700 67.499 C 156.865 67.407,156.787 67.382,156.526 67.443 C 156.265 67.505,155.995 67.384,155.925 67.175 C 155.856 66.967,155.619 67.080,155.399 67.427 M3.632 67.500 C 3.611 67.824,2.943 68.000,1.733 68.000 C 0.707 68.000,-0.058 68.070,0.033 68.156 C 0.386 68.486,4.852 68.640,5.044 68.328 C 5.156 68.148,4.982 68.000,4.657 68.000 C 4.332 68.000,3.976 67.775,3.865 67.500 C 3.704 67.100,3.657 67.100,3.632 67.500 M150.000 68.305 C 150.000 68.540,150.214 68.805,150.475 68.892 C 150.778 68.993,150.621 69.379,150.042 69.958 C 149.542 70.458,149.242 70.976,149.376 71.109 C 149.509 71.243,149.897 70.955,150.237 70.469 C 150.577 69.984,151.022 69.690,151.227 69.817 C 151.926 70.249,151.602 69.326,150.800 68.600 C 150.360 68.202,150.000 68.069,150.000 68.305 M0.000 69.200 C 0.000 69.420,0.720 69.600,1.600 69.600 C 2.480 69.600,3.200 69.420,3.200 69.200 C 3.200 68.980,2.480 68.800,1.600 68.800 C 0.720 68.800,0.000 68.980,0.000 69.200 M5.225 69.276 C 5.211 69.648,5.380 70.064,5.600 70.200 C 6.230 70.590,6.066 71.200,5.400 70.945 C 5.070 70.818,4.800 70.924,4.800 71.181 C 4.800 71.437,4.611 71.531,4.381 71.388 C 4.096 71.212,4.122 70.914,4.461 70.464 C 4.883 69.904,4.874 69.878,4.401 70.300 C 4.092 70.575,2.976 70.800,1.920 70.800 C 0.790 70.800,0.000 70.981,0.000 71.240 C 0.000 71.515,0.662 71.628,1.762 71.540 C 2.731 71.463,3.440 71.535,3.338 71.700 C 3.236 71.865,2.443 72.000,1.576 72.000 C 0.267 72.000,0.000 72.135,0.000 72.800 C 0.000 73.499,0.265 73.599,2.100 73.594 C 3.603 73.589,4.030 73.478,3.600 73.200 C 3.164 72.918,3.143 72.811,3.524 72.806 C 3.812 72.803,3.944 72.632,3.817 72.428 C 3.691 72.223,3.770 71.942,3.993 71.804 C 4.350 71.584,4.565 72.071,4.460 72.862 C 4.441 73.006,4.680 73.222,4.992 73.342 C 5.391 73.495,5.487 73.357,5.316 72.880 C 5.139 72.386,5.388 72.474,6.224 73.200 C 6.857 73.750,7.149 73.903,6.871 73.539 C 6.594 73.175,6.509 72.800,6.683 72.704 C 6.857 72.609,6.781 72.584,6.513 72.648 C 6.245 72.712,5.937 72.622,5.829 72.448 C 5.543 71.985,6.789 70.346,7.223 70.614 C 7.428 70.741,7.472 70.531,7.322 70.141 C 7.157 69.710,6.992 69.625,6.893 69.920 C 6.638 70.685,6.005 70.478,5.612 69.500 C 5.350 68.848,5.244 68.786,5.225 69.276 M153.717 69.327 C 153.850 69.674,153.684 70.036,153.330 70.171 C 152.902 70.336,152.780 70.229,152.935 69.825 C 153.085 69.433,152.969 69.314,152.580 69.463 C 151.468 69.890,152.074 70.661,153.342 70.433 C 154.071 70.302,154.872 71.307,154.319 71.659 C 153.954 71.890,153.941 71.990,154.276 71.994 C 155.061 72.004,155.305 71.210,154.734 70.506 C 154.353 70.036,154.343 69.933,154.700 70.147 C 154.975 70.312,155.200 70.300,155.200 70.120 C 155.200 69.940,154.814 69.551,154.342 69.257 C 153.600 68.793,153.516 68.803,153.717 69.327 M1.600 70.000 L -0.200 70.280 1.676 70.340 C 2.708 70.373,3.664 70.220,3.800 70.000 C 3.936 69.780,3.902 69.627,3.724 69.660 C 3.546 69.693,2.590 69.846,1.600 70.000 M145.200 70.000 C 144.764 70.282,144.743 70.389,145.124 70.394 C 145.412 70.397,145.544 70.568,145.417 70.772 C 145.291 70.977,145.373 71.260,145.600 71.400 C 145.827 71.540,145.892 71.851,145.745 72.089 C 145.581 72.355,145.663 72.408,145.958 72.226 C 146.262 72.038,146.304 71.758,146.071 71.464 C 145.868 71.209,145.754 70.685,145.816 70.300 C 145.948 69.486,145.975 69.499,145.200 70.000 M148.187 70.200 C 148.084 70.530,147.919 71.061,147.820 71.380 C 147.717 71.714,147.844 71.881,148.120 71.775 C 148.384 71.674,148.600 71.143,148.600 70.596 C 148.600 69.462,148.460 69.328,148.187 70.200 M261.754 73.618 C 264.808 77.247,263.739 86.453,259.747 90.901 C 259.006 91.727,258.400 92.716,258.400 93.100 C 258.400 97.128,252.257 107.162,249.043 108.384 C 248.554 108.569,247.600 109.188,246.923 109.758 C 246.245 110.328,244.725 111.244,243.545 111.793 L 241.400 112.792 140.519 112.796 C 62.624 112.799,39.383 112.690,38.519 112.317 C 37.903 112.052,36.648 111.332,35.728 110.717 C 34.808 110.103,33.692 109.600,33.247 109.600 C 32.802 109.600,32.114 109.128,31.719 108.550 C 31.323 107.973,30.526 107.028,29.946 106.450 C 29.366 105.873,28.769 104.995,28.619 104.500 L 28.346 103.600 18.773 103.600 C 12.864 103.600,9.200 103.748,9.200 103.987 C 9.200 104.201,8.930 104.271,8.600 104.145 C 8.176 103.982,7.988 104.192,7.960 104.857 L 7.920 105.800 7.638 104.800 L 7.355 103.800 7.050 104.800 C 6.862 105.419,6.665 105.601,6.533 105.279 C 6.371 104.883,6.199 104.922,5.820 105.441 C 5.388 106.032,5.344 105.962,5.497 104.922 C 5.660 103.809,5.589 103.727,4.537 103.820 C 3.911 103.875,2.635 103.939,1.700 103.960 L 0.000 104.000 0.000 108.204 L 0.000 112.409 13.159 112.141 C 27.154 111.856,29.525 112.022,35.800 113.729 L 39.000 114.600 140.600 114.600 C 236.603 114.600,242.343 114.561,244.800 113.891 C 247.885 113.050,249.016 112.294,250.526 110.063 C 251.146 109.149,251.911 108.400,252.226 108.400 C 252.542 108.400,252.800 108.232,252.800 108.026 C 252.800 107.820,253.505 107.255,254.366 106.771 C 256.425 105.614,257.996 102.750,258.250 99.691 C 258.508 96.576,259.185 94.459,260.006 94.198 C 262.149 93.518,264.102 89.766,264.586 85.400 C 264.975 81.887,265.632 78.668,266.069 78.128 C 266.633 77.432,264.545 73.395,263.338 72.845 C 261.285 71.909,260.598 72.244,261.754 73.618 M0.700 74.282 C 1.195 74.378,2.005 74.378,2.500 74.282 C 2.995 74.187,2.590 74.109,1.600 74.109 C 0.610 74.109,0.205 74.187,0.700 74.282 M0.905 79.487 C 1.514 79.579,2.414 79.577,2.905 79.482 C 3.397 79.387,2.900 79.311,1.800 79.314 C 0.700 79.317,0.297 79.395,0.905 79.487 M0.700 81.882 C 1.195 81.978,2.005 81.978,2.500 81.882 C 2.995 81.787,2.590 81.709,1.600 81.709 C 0.610 81.709,0.205 81.787,0.700 81.882 M1.600 82.800 L -0.200 83.080 1.476 83.140 C 2.398 83.173,3.264 83.020,3.400 82.800 C 3.536 82.580,3.592 82.427,3.524 82.460 C 3.456 82.493,2.590 82.646,1.600 82.800 M1.800 101.600 L -0.200 101.874 1.676 101.937 C 2.708 101.972,3.664 101.820,3.800 101.600 C 3.936 101.380,3.992 101.228,3.924 101.263 C 3.856 101.297,2.900 101.449,1.800 101.600 " stroke="none" fill="#fcdc54" fill-rule="evenodd"></path></g></svg>